<svg width="429" height="63" viewBox="0 0 429 63" fill="none" xmlns="http://www.w3.org/2000/svg">
<path d="M120.672 38.7981C120.607 38.6237 120.532 38.4493 120.45 38.2793H111.299C111.351 38.4493 111.399 38.6237 111.443 38.7981H120.672Z" fill="#01C696"/>
<path d="M120.965 39.7483C120.921 39.5739 120.869 39.3995 120.816 39.2295H111.539C111.574 39.3995 111.6 39.5739 111.622 39.7483H120.965Z" fill="#01C696"/>
<path d="M97.3559 25.0557H88.4668V25.5745H97.3559V25.0557Z" fill="#01C696"/>
<path d="M111.717 41.6409H121.204C121.2 41.4665 121.195 41.2921 121.178 41.1221H111.717C111.717 41.1787 111.717 41.2311 111.717 41.2877C111.717 41.4055 111.717 41.5232 111.713 41.6409H111.717Z" fill="#01C696"/>
<path d="M120.227 37.8557C120.127 37.6813 120.022 37.5069 119.909 37.3369H110.924C111.007 37.5069 111.081 37.6813 111.151 37.8557H120.227Z" fill="#01C696"/>
<path d="M121.13 40.6858C121.108 40.5114 121.082 40.337 121.051 40.167H111.674C111.691 40.3414 111.704 40.5114 111.709 40.6858H121.13Z" fill="#01C696"/>
<path d="M139.219 43.9512H130.33V44.3043C130.33 44.3566 130.33 44.4177 130.33 44.47H139.219V43.9512Z" fill="#01C696"/>
<path d="M121.082 43.9512H111.373C111.321 44.1256 111.264 44.3 111.203 44.47H120.995C121.03 44.3 121.056 44.1256 121.082 43.9512Z" fill="#01C696"/>
<path d="M110.017 35.968H118.684C118.479 35.7849 118.269 35.6105 118.047 35.4492H109.498C109.686 35.6149 109.856 35.7893 110.013 35.968H110.017Z" fill="#01C696"/>
<path d="M97.3559 43.0098H88.4668V43.5286H97.3559V43.0098Z" fill="#01C696"/>
<path d="M97.3559 42.0596H88.4668V42.5784H97.3559V42.0596Z" fill="#01C696"/>
<path d="M162.818 43.9512H153.375C153.336 44.1256 153.288 44.3 153.24 44.47H162.718C162.757 44.3 162.788 44.1256 162.818 43.9512Z" fill="#01C696"/>
<path d="M97.3559 28.8359H88.4668V29.3548H97.3559V28.8359Z" fill="#01C696"/>
<path d="M97.3559 29.7734H88.4668V30.2923H97.3559V29.7734Z" fill="#01C696"/>
<path d="M97.3559 27.8848H88.4668V28.4036H97.3559V27.8848Z" fill="#01C696"/>
<path d="M97.3559 26.9434H88.4668V27.4622H97.3559V26.9434Z" fill="#01C696"/>
<path d="M97.3559 25.9932H88.4668V26.512H97.3559V25.9932Z" fill="#01C696"/>
<path d="M158.162 33.1341C157.778 32.9335 157.376 32.7635 156.966 32.6152H130.334V33.1341H158.162Z" fill="#01C696"/>
<path d="M159.601 34.0764C159.601 34.0764 159.588 34.0634 159.583 34.059C159.357 33.8759 159.121 33.7102 158.881 33.5576H130.334V34.0764H159.605H159.601Z" fill="#01C696"/>
<path d="M139.219 34.5078H130.33V35.0266H139.219V34.5078Z" fill="#01C696"/>
<path d="M113.481 29.7734H106.62C106.109 29.9958 105.564 30.1658 105.006 30.2923H112.168C112.608 30.1397 113.049 29.9653 113.476 29.7734H113.481Z" fill="#01C696"/>
<path d="M155.519 32.1844C155.519 32.1844 155.51 32.1844 155.501 32.1844C154.359 31.9097 153.102 31.7571 151.842 31.6699H130.33V32.1887H155.519V32.1844Z" fill="#01C696"/>
<path d="M139.219 30.7275H130.33V31.2464H139.219V30.7275Z" fill="#01C696"/>
<path d="M119.596 36.9055C119.452 36.7268 119.295 36.5568 119.129 36.3867H110.354C110.476 36.5524 110.589 36.7268 110.689 36.9055H119.592H119.596Z" fill="#01C696"/>
<path d="M365.311 34.5078L365.476 35.0266H374.269L374.104 34.5078H365.311Z" fill="#01C696"/>
<path d="M365.01 33.5576L365.171 34.0764H373.964L373.803 33.5576H365.01Z" fill="#01C696"/>
<path d="M365.607 35.4492L365.773 35.968H374.566L374.401 35.4492H365.607Z" fill="#01C696"/>
<path d="M349.717 36.3867L349.543 36.9055H374.863L374.697 36.3867H349.717Z" fill="#01C696"/>
<path d="M349.399 37.3369L349.229 37.8557H375.163L375.002 37.3369H349.399Z" fill="#01C696"/>
<path d="M364.107 30.7275L364.273 31.2464H373.071L372.905 30.7275H364.107Z" fill="#01C696"/>
<path d="M364.709 32.6152L364.875 33.1341H373.668L373.502 32.6152H364.709Z" fill="#01C696"/>
<path d="M363.51 28.8359L363.671 29.3548H372.469L372.307 28.8359H363.51Z" fill="#01C696"/>
<path d="M182.006 43.0098H172.947V43.5286H182.006V43.0098Z" fill="#01C696"/>
<path d="M349.089 38.2793L348.914 38.7981H375.464L375.298 38.2793H349.089Z" fill="#01C696"/>
<path d="M364.408 31.665L364.574 32.1839H373.367L373.201 31.665H364.408Z" fill="#01C696"/>
<path d="M363.807 29.7734L363.972 30.2966H372.77L372.604 29.7734H363.807Z" fill="#01C696"/>
<path d="M275.717 43.0098H271.403L271.229 43.5286H275.547L275.717 43.0098Z" fill="#01C696"/>
<path d="M254.459 43.0098H245.67L245.831 43.5286H254.624L254.459 43.0098Z" fill="#01C696"/>
<path d="M229.488 43.0098H225.174L225.004 43.5286H229.318L229.488 43.0098Z" fill="#01C696"/>
<path d="M208.543 43.0098H199.471V43.5286H208.543V43.0098Z" fill="#01C696"/>
<path d="M300.688 43.0098H291.895L292.06 43.5286H300.849L300.688 43.0098Z" fill="#01C696"/>
<path d="M376.198 41.1221H367.418L367.579 41.6409H376.364L376.198 41.1221Z" fill="#01C696"/>
<path d="M366.824 39.2295L366.986 39.7483H375.766L375.6 39.2295H366.824Z" fill="#01C696"/>
<path d="M367.115 40.167L367.281 40.6858H376.061L375.895 40.167H367.115Z" fill="#01C696"/>
<path d="M347.828 42.0596L347.658 42.5784H351.959L352.133 42.0596H347.828Z" fill="#01C696"/>
<path d="M327.224 43.0098H318.51V43.5286H327.224V43.0098Z" fill="#01C696"/>
<path d="M351.819 43.0098H347.514L347.34 43.5286H351.645L351.819 43.0098Z" fill="#01C696"/>
<path d="M304.338 23.6819H307.762C307.801 23.5075 307.84 23.3331 307.888 23.1631H304.338V23.6819Z" fill="#01C696"/>
<path d="M139.219 24.1143H130.33V24.6331H139.219V24.1143Z" fill="#01C696"/>
<path d="M182.006 24.1143H172.947V24.6331H182.006V24.1143Z" fill="#01C696"/>
<path d="M110.262 24.6331H118.745C118.802 24.463 118.859 24.2887 118.907 24.1143H110.305C110.297 24.2887 110.284 24.463 110.262 24.6331Z" fill="#01C696"/>
<path d="M231.293 24.6331H235.502L235.672 24.1143H231.467L231.293 24.6331Z" fill="#01C696"/>
<path d="M115.239 28.8359H108.173C108.116 28.8839 108.059 28.9319 107.998 28.9798C107.819 29.115 107.632 29.2414 107.436 29.3548H114.34C114.645 29.1934 114.946 29.0234 115.234 28.8359H115.239Z" fill="#01C696"/>
<path d="M208.543 24.1143H199.471V24.6331H208.543V24.1143Z" fill="#01C696"/>
<path d="M111.649 42.5784H121.205C121.21 42.4084 121.214 42.234 121.214 42.0596H111.693C111.679 42.234 111.666 42.4084 111.645 42.5784H111.649Z" fill="#01C696"/>
<path d="M121.183 43.0098H111.587C111.557 43.1842 111.522 43.3585 111.482 43.5286H121.135C121.152 43.3585 121.17 43.1842 121.178 43.0098H121.183Z" fill="#01C696"/>
<path d="M239.837 24.6331H248.63L248.469 24.1143H239.676L239.837 24.6331Z" fill="#01C696"/>
<path d="M139.219 29.7734H130.33V30.2923H139.219V29.7734Z" fill="#01C696"/>
<path d="M139.219 35.4492H130.33V35.968H139.219V35.4492Z" fill="#01C696"/>
<path d="M149.359 35.0266H160.59C160.429 34.8479 160.254 34.6735 160.075 34.5078H147.008C147.81 34.6081 148.613 34.7738 149.359 35.0266Z" fill="#01C696"/>
<path d="M304.338 24.6331H307.57C307.6 24.4587 307.627 24.2843 307.661 24.1143H304.338V24.6331Z" fill="#01C696"/>
<path d="M327.224 41.1221H318.51V41.6409H327.224V41.1221Z" fill="#01C696"/>
<path d="M354.638 34.5078H350.342L350.172 35.0266H354.473L354.638 34.5078Z" fill="#01C696"/>
<path d="M300.087 41.1221H291.307L291.468 41.6409H300.252L300.087 41.1221Z" fill="#01C696"/>
<path d="M277.523 24.6331H281.732L281.903 24.1143H277.698L277.523 24.6331Z" fill="#01C696"/>
<path d="M276.336 41.1221H272.031L271.861 41.6409H276.166L276.336 41.1221Z" fill="#01C696"/>
<path d="M253.861 41.1221H245.076L245.238 41.6409H254.022L253.861 41.1221Z" fill="#01C696"/>
<path d="M139.219 43.0098H130.33V43.5286H139.219V43.0098Z" fill="#01C696"/>
<path d="M286.068 24.6331H294.861L294.7 24.1143H285.902L286.068 24.6331Z" fill="#01C696"/>
<path d="M327.224 24.1143H318.51V24.6331H327.224V24.1143Z" fill="#01C696"/>
<path d="M353.316 25.5745H357.539L357.709 25.0557H353.487L353.316 25.5745Z" fill="#01C696"/>
<path d="M338.103 24.6331H341.392V24.1143H338.016C338.051 24.2843 338.077 24.4587 338.103 24.6331Z" fill="#01C696"/>
<path d="M239.536 23.6819H248.33L248.168 23.1631H239.375L239.536 23.6819Z" fill="#01C696"/>
<path d="M230.112 41.1221H225.807L225.633 41.6409H229.938L230.112 41.1221Z" fill="#01C696"/>
<path d="M337.915 23.6819H341.391V23.1631H337.793C337.841 23.3331 337.876 23.5075 337.915 23.6819Z" fill="#01C696"/>
<path d="M363.203 27.8848L363.369 28.4036H372.166L372.005 27.8848H363.203Z" fill="#01C696"/>
<path d="M327.224 23.1631H318.51V23.6819H327.224V23.1631Z" fill="#01C696"/>
<path d="M97.3559 24.1143H88.4668V24.6331H97.3559V24.1143Z" fill="#01C696"/>
<path d="M277.842 23.6819H282.042L282.212 23.1631H278.016L277.842 23.6819Z" fill="#01C696"/>
<path d="M139.219 23.1631H130.33V23.6819H139.219V23.1631Z" fill="#01C696"/>
<path d="M110.326 23.477C110.326 23.5468 110.326 23.6122 110.326 23.6819H119.002C119.036 23.5119 119.063 23.3375 119.084 23.1631H110.326C110.326 23.2677 110.331 23.3724 110.331 23.477H110.326Z" fill="#01C696"/>
<path d="M208.543 23.1631H199.471V23.6819H208.543V23.1631Z" fill="#01C696"/>
<path d="M162.946 43.0098H153.529C153.511 43.1842 153.49 43.3585 153.459 43.5286H162.885C162.906 43.3585 162.928 43.1842 162.946 43.0098Z" fill="#01C696"/>
<path d="M231.611 23.6819H235.812L235.982 23.1631H231.786L231.611 23.6819Z" fill="#01C696"/>
<path d="M182.006 23.1631H172.947V23.6819H182.006V23.1631Z" fill="#01C696"/>
<path d="M254.158 42.0596H245.369L245.535 42.5784H254.324L254.158 42.0596Z" fill="#01C696"/>
<path d="M353.625 24.6331H357.843L358.013 24.1143H353.799L353.625 24.6331Z" fill="#01C696"/>
<path d="M276.026 42.0596H271.721L271.547 42.5784H275.856L276.026 42.0596Z" fill="#01C696"/>
<path d="M208.543 42.0596H199.471V42.5784H208.543V42.0596Z" fill="#01C696"/>
<path d="M182.006 42.0596H172.947V42.5784H182.006V42.0596Z" fill="#01C696"/>
<path d="M229.802 42.0596H225.493L225.318 42.5784H229.632L229.802 42.0596Z" fill="#01C696"/>
<path d="M348.602 39.7483H352.898L353.072 39.2295H348.772L348.602 39.7483Z" fill="#01C696"/>
<path d="M354.333 35.4492H350.032L349.857 35.968H354.167L354.333 35.4492Z" fill="#01C696"/>
<path d="M327.224 42.0596H318.51V42.5784H327.224V42.0596Z" fill="#01C696"/>
<path d="M300.386 42.0596H291.598L291.759 42.5784H300.548L300.386 42.0596Z" fill="#01C696"/>
<path d="M352.444 41.1221H348.143L347.969 41.6409H352.274L352.444 41.1221Z" fill="#01C696"/>
<path d="M285.767 23.6819H294.56L294.395 23.1631H285.602L285.767 23.6819Z" fill="#01C696"/>
<path d="M228.795 45.3552C228.825 45.1982 228.869 45.0456 228.908 44.8887H224.542C224.481 45.0587 224.415 45.2331 224.346 45.4075H228.786C228.786 45.4075 228.79 45.3726 228.795 45.3552Z" fill="#01C696"/>
<path d="M301.294 44.8887H292.475C292.496 44.9715 292.527 45.0631 292.553 45.1415C292.579 45.2287 292.601 45.3203 292.623 45.4075H301.486C301.416 45.2331 301.351 45.0587 301.29 44.8887H301.294Z" fill="#01C696"/>
<path d="M275.023 45.3552C275.054 45.1982 275.097 45.0456 275.137 44.8887H270.77C270.709 45.0587 270.644 45.2331 270.574 45.4075H275.014C275.014 45.4075 275.019 45.3726 275.023 45.3552Z" fill="#01C696"/>
<path d="M255.065 44.8887H246.25C246.272 44.9759 246.298 45.0631 246.329 45.1415C246.355 45.2287 246.377 45.3203 246.398 45.4075H255.261C255.191 45.2331 255.126 45.0587 255.065 44.8887Z" fill="#01C696"/>
<path d="M162.322 45.8389H152.644C152.539 46.0176 152.421 46.192 152.295 46.3577H162.109C162.187 46.1877 162.257 46.0133 162.322 45.8389Z" fill="#01C696"/>
<path d="M336.877 20.8528H341.396V20.334H336.576C336.685 20.504 336.781 20.6784 336.877 20.8528Z" fill="#01C696"/>
<path d="M208.552 44.8887H199.458C199.454 45.0587 199.441 45.2331 199.428 45.4075H208.587C208.574 45.2331 208.561 45.0587 208.557 44.8887H208.552Z" fill="#01C696"/>
<path d="M354.887 20.8528H359.074L359.24 20.334H355.057L354.887 20.8528Z" fill="#01C696"/>
<path d="M327.233 44.8887H318.496C318.492 45.0587 318.483 45.2331 318.475 45.4075H327.255C327.246 45.2331 327.237 45.0587 327.233 44.8887Z" fill="#01C696"/>
<path d="M361.572 22.7449H370.374L370.208 22.2217H361.406L361.572 22.7449Z" fill="#01C696"/>
<path d="M351.134 45.3552C351.165 45.1982 351.204 45.0456 351.244 44.8887H346.882C346.821 45.0587 346.755 45.2331 346.686 45.4075H351.126C351.126 45.4075 351.13 45.3726 351.134 45.3552Z" fill="#01C696"/>
<path d="M376.799 43.0098H368.01L368.171 43.5286H376.96L376.799 43.0098Z" fill="#01C696"/>
<path d="M182.02 44.8887H172.935C172.93 45.0587 172.917 45.2331 172.904 45.4075H182.051C182.038 45.2331 182.025 45.0587 182.02 44.8887Z" fill="#01C696"/>
<path d="M71.2685 24.1143H68.1542L67.9492 24.6331H71.0547L71.2685 24.1143Z" fill="#01C696"/>
<path d="M107.082 34.0764H115.6C115.138 33.8802 114.667 33.7146 114.196 33.5576H104.971C105.69 33.671 106.406 33.8366 107.082 34.0764Z" fill="#01C696"/>
<path d="M107.161 31.8961L107.885 31.665H88.4668V32.1839H108.487L107.161 31.8961Z" fill="#01C696"/>
<path d="M88.4668 21.3761V21.7903H97.3559V21.2715H88.4668C88.4668 21.3064 88.4668 21.3412 88.4668 21.3761Z" fill="#01C696"/>
<path d="M69.3 21.2884L69.2738 21.3364L69.1255 21.6328L69.0645 21.7854H72.2223L72.436 21.2666H69.3087C69.3087 21.2666 69.3043 21.2797 69.3 21.284V21.2884Z" fill="#01C696"/>
<path d="M120.624 45.8389H110.496C110.374 46.0176 110.247 46.192 110.104 46.3577H120.415C120.489 46.1877 120.558 46.0133 120.624 45.8389Z" fill="#01C696"/>
<path d="M97.3541 45.8389H88.3822C88.3603 46.0133 88.3298 46.1877 88.2949 46.3577H97.3541V45.8389Z" fill="#01C696"/>
<path d="M97.3559 40.167H88.4668V40.6858H97.3559V40.167Z" fill="#01C696"/>
<path d="M139.219 45.8389H130.251C130.229 46.0133 130.199 46.1877 130.164 46.3577H139.219V45.8389Z" fill="#01C696"/>
<path d="M62.6751 44.8887H59.6219C59.5521 45.0631 59.4824 45.2331 59.4082 45.4075H62.4309C62.5137 45.2331 62.5966 45.0587 62.6751 44.8887Z" fill="#01C696"/>
<path d="M60.2494 43.1144L60.1055 43.5286H63.2677C63.3331 43.3716 63.3985 43.219 63.4596 43.0664L63.4814 43.0098H60.2014L60.245 43.1144H60.2494Z" fill="#01C696"/>
<path d="M69.1134 29.3548L69.3271 28.8359H66.287L66.082 29.3548H69.1134Z" fill="#01C696"/>
<path d="M60.0282 24.6331L59.8014 24.1143H52.2383L52.4564 24.6331H60.0282Z" fill="#01C696"/>
<path d="M59.6133 23.6819L59.3908 23.1631H51.832L52.0545 23.6819H59.6133Z" fill="#01C696"/>
<path d="M327.224 20.334H318.51V20.8528H327.224V20.334Z" fill="#01C696"/>
<path d="M70.8799 25.0557H67.7831L67.5781 25.5745H70.6662L70.8799 25.0557Z" fill="#01C696"/>
<path d="M59.2076 22.7449L58.9852 22.2217H51.4395L51.6575 22.7449H59.2076Z" fill="#01C696"/>
<path d="M69.89 27.4622L70.1037 26.9434H67.0331L66.8281 27.4622H69.89Z" fill="#01C696"/>
<path d="M110.178 21.7903H119.145C119.141 21.6159 119.132 21.4415 119.119 21.2715H110.064C110.108 21.4415 110.143 21.6159 110.178 21.7903Z" fill="#01C696"/>
<path d="M68.7249 30.2966L68.9386 29.7734H65.9159L65.7109 30.2966H68.7249Z" fill="#01C696"/>
<path d="M69.501 28.4036L69.7147 27.8848H66.6616L66.4609 28.4036H69.501Z" fill="#01C696"/>
<path d="M70.282 26.512L70.4957 25.9932H67.412L67.207 26.512H70.282Z" fill="#01C696"/>
<path d="M50.6934 20.4648L50.8592 20.8528H58.3831C58.3133 20.6915 58.2391 20.5127 58.1693 20.334H50.6367C50.6542 20.3776 50.676 20.4212 50.6934 20.4648Z" fill="#01C696"/>
<path d="M58.7985 21.7903L58.5804 21.2933L58.5717 21.2715H51.0391L51.2571 21.7903H58.7985Z" fill="#01C696"/>
<path d="M278.783 20.8528H282.962L283.127 20.334H278.958L278.783 20.8528Z" fill="#01C696"/>
<path d="M232.555 20.8528H236.733L236.899 20.334H232.729L232.555 20.8528Z" fill="#01C696"/>
<path d="M238.642 20.8528H247.435L247.27 20.334H238.477L238.642 20.8528Z" fill="#01C696"/>
<path d="M284.868 20.8528H293.662L293.5 20.334H284.707L284.868 20.8528Z" fill="#01C696"/>
<path d="M304.338 20.8528H308.822C308.918 20.6784 309.018 20.504 309.127 20.334H304.334V20.8528H304.338Z" fill="#01C696"/>
<path d="M88.4574 20.8528H97.3552V20.334H88.4355C88.4486 20.5127 88.4574 20.6828 88.4617 20.8528H88.4574Z" fill="#01C696"/>
<path d="M362.906 26.9434L363.072 27.4622H371.869L371.704 26.9434H362.906Z" fill="#01C696"/>
<path d="M109.942 20.8528H119.08C119.058 20.6784 119.036 20.504 119.006 20.334H109.746C109.82 20.504 109.886 20.6784 109.942 20.8528Z" fill="#01C696"/>
<path d="M199.462 20.8528H208.551C208.556 20.6828 208.565 20.5084 208.578 20.334H199.436C199.449 20.5127 199.457 20.6828 199.462 20.8528Z" fill="#01C696"/>
<path d="M130.321 20.8528H139.228C139.232 20.6828 139.241 20.5084 139.254 20.334H130.295C130.308 20.5127 130.317 20.6828 130.321 20.8528Z" fill="#01C696"/>
<path d="M172.939 20.8528H182.015C182.02 20.6828 182.028 20.5084 182.042 20.334H172.908C172.921 20.5127 172.93 20.6828 172.934 20.8528H172.939Z" fill="#01C696"/>
<path d="M69.4707 20.8528H72.6111L72.6635 20.7264C72.7114 20.5999 72.7681 20.4691 72.8248 20.334H69.6626C69.5972 20.5171 69.5361 20.6871 69.4707 20.8528Z" fill="#01C696"/>
<path d="M97.3559 22.2217H88.4668V22.7405H97.3559V22.2217Z" fill="#01C696"/>
<path d="M231.926 22.7449H236.117L236.287 22.2217H232.096L231.926 22.7449Z" fill="#01C696"/>
<path d="M110.3 22.7444H119.128C119.141 22.5744 119.145 22.4 119.15 22.2256H110.252C110.274 22.3956 110.291 22.57 110.304 22.7444H110.3Z" fill="#01C696"/>
<path d="M208.543 22.2217H199.471V22.7405H208.543V22.2217Z" fill="#01C696"/>
<path d="M182.006 22.2217H172.947V22.7405H182.006V22.2217Z" fill="#01C696"/>
<path d="M139.219 22.2217H130.33V22.7405H139.219V22.2217Z" fill="#01C696"/>
<path d="M68.6953 22.7449H71.8357L72.0494 22.2217H68.9003L68.6953 22.7449Z" fill="#01C696"/>
<path d="M108.958 35.0266H117.441C117.145 34.8392 116.839 34.6691 116.525 34.5078H108.09C108.391 34.6604 108.683 34.8348 108.958 35.0266Z" fill="#01C696"/>
<path d="M97.3559 41.1221H88.4668V41.6409H97.3559V41.1221Z" fill="#01C696"/>
<path d="M71.6609 23.1631H68.5292L68.3242 23.6819H71.4472L71.6609 23.1631Z" fill="#01C696"/>
<path d="M110.847 30.7275H88.4668V31.2464H109.211L110.847 30.7275Z" fill="#01C696"/>
<path d="M362.008 24.1143L362.169 24.6331H370.971L370.81 24.1143H362.008Z" fill="#01C696"/>
<path d="M97.3541 44.8887H88.4563C88.4519 45.0587 88.4389 45.2331 88.4258 45.4075H97.3541V44.8887Z" fill="#01C696"/>
<path d="M239.24 22.7449H248.033L247.867 22.2217H239.074L239.24 22.7449Z" fill="#01C696"/>
<path d="M353.943 23.6819H358.152L358.322 23.1631H354.118L353.943 23.6819Z" fill="#01C696"/>
<path d="M362.305 25.0557L362.47 25.5745H371.272L371.107 25.0557H362.305Z" fill="#01C696"/>
<path d="M362.605 25.9932L362.767 26.512H371.569L371.403 25.9932H362.605Z" fill="#01C696"/>
<path d="M354.428 22.2217L354.258 22.7449H358.458L358.628 22.2217H354.428Z" fill="#01C696"/>
<path d="M278.156 22.7449H282.348L282.514 22.2217H278.326L278.156 22.7449Z" fill="#01C696"/>
<path d="M285.47 22.7449H294.264L294.098 22.2217H285.305L285.47 22.7449Z" fill="#01C696"/>
<path d="M304.338 22.7444H308.02C308.076 22.57 308.124 22.3956 308.185 22.2256H304.334V22.7444H304.338Z" fill="#01C696"/>
<path d="M327.224 22.2217H318.51V22.7405H327.224V22.2217Z" fill="#01C696"/>
<path d="M337.665 22.7444H341.395V22.2256H337.504C337.565 22.3956 337.613 22.57 337.67 22.7444H337.665Z" fill="#01C696"/>
<path d="M327.224 21.2715H318.51V21.7903H327.224V21.2715Z" fill="#01C696"/>
<path d="M130.33 21.3761V21.7903H139.219V21.3805C139.219 21.3456 139.219 21.3064 139.219 21.2715H130.33C130.33 21.3064 130.33 21.3412 130.33 21.3761Z" fill="#01C696"/>
<path d="M304.338 21.7903H308.368C308.442 21.6159 308.512 21.4415 308.595 21.2715H304.338V21.7903Z" fill="#01C696"/>
<path d="M354.572 21.7903H358.768L358.934 21.2715H354.747L354.572 21.7903Z" fill="#01C696"/>
<path d="M337.322 21.7903H341.391V21.2715H337.1C337.182 21.4415 337.248 21.6159 337.322 21.7903Z" fill="#01C696"/>
<path d="M120.904 44.8887H111.029C110.951 45.0674 110.864 45.2375 110.768 45.4075H120.765C120.817 45.2375 120.865 45.0631 120.904 44.8887Z" fill="#01C696"/>
<path d="M199.471 21.3761V21.7903H208.543V21.3805C208.543 21.3456 208.543 21.3064 208.543 21.2715H199.467C199.467 21.3064 199.467 21.3412 199.467 21.3761H199.471Z" fill="#01C696"/>
<path d="M278.469 21.7903H282.656L282.822 21.2715H278.643L278.469 21.7903Z" fill="#01C696"/>
<path d="M361.869 23.6819H370.671L370.505 23.1631H361.703L361.869 23.6819Z" fill="#01C696"/>
<path d="M172.948 21.3761V21.7903H182.007V21.3805C182.007 21.3456 182.007 21.3064 182.007 21.2715H172.943C172.943 21.3064 172.943 21.3412 172.943 21.3761H172.948Z" fill="#01C696"/>
<path d="M238.939 21.7903H247.732L247.567 21.2715H238.773L238.939 21.7903Z" fill="#01C696"/>
<path d="M232.244 21.7903H236.427L236.597 21.2715H232.414L232.244 21.7903Z" fill="#01C696"/>
<path d="M285.17 21.7903H293.963L293.797 21.2715H285.004L285.17 21.7903Z" fill="#01C696"/>
<path d="M229.017 44.4399L229.03 44.4007L229.178 43.9473H224.86L224.751 44.2743C224.729 44.3353 224.707 44.4007 224.686 44.4661H229.008C229.008 44.4661 229.008 44.4486 229.017 44.4356V44.4399Z" fill="#01C696"/>
<path d="M376.498 42.0596H367.709L367.87 42.5784H376.659L376.498 42.0596Z" fill="#01C696"/>
<path d="M182.01 44.3043V43.9512H172.951V44.3043C172.951 44.3566 172.951 44.4177 172.951 44.47H182.015C182.015 44.4177 182.015 44.3566 182.015 44.3043H182.01Z" fill="#01C696"/>
<path d="M162.623 44.8887H153.101C153.036 45.0631 152.962 45.2375 152.879 45.4075H162.47C162.527 45.2375 162.575 45.0631 162.623 44.8887Z" fill="#01C696"/>
<path d="M139.217 44.8887H130.32C130.315 45.0587 130.307 45.2331 130.289 45.4075H139.217V44.8887Z" fill="#01C696"/>
<path d="M208.543 44.3043V43.9512H199.471V44.3043C199.471 44.3566 199.471 44.4177 199.471 44.47H208.547C208.547 44.4177 208.547 44.3566 208.547 44.3043H208.543Z" fill="#01C696"/>
<path d="M254.92 44.4656L254.754 43.9512H245.961L246.122 44.47H254.92V44.4656Z" fill="#01C696"/>
<path d="M351.343 44.4399L351.357 44.4007L351.505 43.9473H347.2L347.091 44.2743C347.069 44.3353 347.047 44.4007 347.025 44.4661H351.335C351.335 44.4661 351.335 44.4486 351.343 44.4356V44.4399Z" fill="#01C696"/>
<path d="M327.224 43.9512H318.51C318.51 44.1125 318.51 44.2869 318.51 44.47H327.229C327.229 44.2869 327.229 44.1125 327.229 43.9512H327.224Z" fill="#01C696"/>
<path d="M275.245 44.4399L275.258 44.4007L275.407 43.9473H271.089L270.979 44.2743C270.958 44.3353 270.936 44.4007 270.914 44.4661H275.236C275.236 44.4661 275.236 44.4486 275.245 44.4356V44.4399Z" fill="#01C696"/>
<path d="M301.146 44.4656L300.985 43.9512H292.191L292.353 44.47H301.15L301.146 44.4656Z" fill="#01C696"/>
<path d="M232.44 34.0764L232.606 33.5576H228.323L228.148 34.0764H232.44Z" fill="#01C696"/>
<path d="M252.361 36.3867H227.382L227.207 36.9055H252.522L252.361 36.3867Z" fill="#01C696"/>
<path d="M278.526 34.5078H274.235L274.064 35.0266H278.361L278.526 34.5078Z" fill="#01C696"/>
<path d="M229.41 30.2966H233.667L233.837 29.7734H229.585L229.41 30.2966Z" fill="#01C696"/>
<path d="M241.634 30.2966H250.428L250.262 29.7734H241.469L241.634 30.2966Z" fill="#01C696"/>
<path d="M229.723 29.3548H233.971L234.141 28.8359H229.897L229.723 29.3548Z" fill="#01C696"/>
<path d="M287.865 30.2966H296.658L296.492 29.7734H287.699L287.865 30.2966Z" fill="#01C696"/>
<path d="M275.639 30.2966H279.896L280.066 29.7734H275.813L275.639 30.2966Z" fill="#01C696"/>
<path d="M278.221 35.4492H273.92L273.75 35.968H278.055L278.221 35.4492Z" fill="#01C696"/>
<path d="M241.338 29.3548H250.131L249.965 28.8359H241.172L241.338 29.3548Z" fill="#01C696"/>
<path d="M275.953 29.3548H280.201L280.367 28.8359H276.123L275.953 29.3548Z" fill="#01C696"/>
<path d="M297.09 31.665H288.297L288.463 32.1839H297.256L297.09 31.665Z" fill="#01C696"/>
<path d="M287.564 29.3548H296.357L296.195 28.8359H287.402L287.564 29.3548Z" fill="#01C696"/>
<path d="M276.268 28.4036H280.512L280.677 27.8848H276.442L276.268 28.4036Z" fill="#01C696"/>
<path d="M251.762 34.5078H242.969L243.134 35.0266H251.928L251.762 34.5078Z" fill="#01C696"/>
<path d="M232.13 35.0266L232.3 34.5078H228.004L227.834 35.0266H232.13Z" fill="#01C696"/>
<path d="M68.3324 31.2464L68.5461 30.7275H65.5409L65.3359 31.2464H68.3324Z" fill="#01C696"/>
<path d="M232.746 33.1341L232.912 32.6152H228.637L228.463 33.1341H232.746Z" fill="#01C696"/>
<path d="M278.837 33.5576H274.553L274.379 34.0764H278.666L278.837 33.5576Z" fill="#01C696"/>
<path d="M229.096 31.2464H233.357L233.527 30.7275H229.266L229.096 31.2464Z" fill="#01C696"/>
<path d="M252.06 35.4492H243.271L243.433 35.968H252.226L252.06 35.4492Z" fill="#01C696"/>
<path d="M231.997 35.4492H227.696L227.521 35.968H231.826L231.997 35.4492Z" fill="#01C696"/>
<path d="M275.18 31.665L275.01 32.1839H279.28L279.45 31.665H275.18Z" fill="#01C696"/>
<path d="M241.935 31.2464H250.728L250.563 30.7275H241.77L241.935 31.2464Z" fill="#01C696"/>
<path d="M274.866 32.6152L274.691 33.1341H278.97L279.14 32.6152H274.866Z" fill="#01C696"/>
<path d="M208.543 30.7275H199.471V31.2464H208.543V30.7275Z" fill="#01C696"/>
<path d="M288.602 32.6152L288.763 33.1341H297.556L297.39 32.6152H288.602Z" fill="#01C696"/>
<path d="M288.898 33.5576L289.064 34.0764H297.853L297.692 33.5576H288.898Z" fill="#01C696"/>
<path d="M289.496 35.4492L289.662 35.968H298.455L298.289 35.4492H289.496Z" fill="#01C696"/>
<path d="M289.199 34.5078L289.365 35.0266H298.158L297.992 34.5078H289.199Z" fill="#01C696"/>
<path d="M327.224 31.665H318.51V32.1839H327.224V31.665Z" fill="#01C696"/>
<path d="M327.224 27.8848H318.51V28.4036H327.224V27.8848Z" fill="#01C696"/>
<path d="M273.61 36.3867L273.436 36.9055H298.751L298.585 36.3867H273.61Z" fill="#01C696"/>
<path d="M327.224 30.7275H318.51V31.2464H327.224V30.7275Z" fill="#01C696"/>
<path d="M287.263 28.4036H296.057L295.891 27.8848H287.098L287.263 28.4036Z" fill="#01C696"/>
<path d="M327.224 28.8359H318.51V29.3548H327.224V28.8359Z" fill="#01C696"/>
<path d="M327.224 29.7734H318.51V30.2923H327.224V29.7734Z" fill="#01C696"/>
<path d="M208.543 34.5078H199.471V35.0266H208.543V34.5078Z" fill="#01C696"/>
<path d="M208.543 32.6152H199.471V33.1341H208.543V32.6152Z" fill="#01C696"/>
<path d="M208.543 33.5576H199.471V34.0764H208.543V33.5576Z" fill="#01C696"/>
<path d="M208.543 31.665H199.471V32.1839H208.543V31.665Z" fill="#01C696"/>
<path d="M228.781 32.1839H233.051L233.221 31.665H228.951L228.781 32.1839Z" fill="#01C696"/>
<path d="M208.543 29.7734H199.471V30.2923H208.543V29.7734Z" fill="#01C696"/>
<path d="M208.543 36.3867H199.471V36.9055H208.543V36.3867Z" fill="#01C696"/>
<path d="M208.543 28.8359H199.471V29.3548H208.543V28.8359Z" fill="#01C696"/>
<path d="M208.543 37.3369H199.471V37.8557H208.543V37.3369Z" fill="#01C696"/>
<path d="M252.661 37.3369H227.063L226.893 37.8557H252.823L252.661 37.3369Z" fill="#01C696"/>
<path d="M208.543 35.4492H199.471V35.968H208.543V35.4492Z" fill="#01C696"/>
<path d="M298.886 37.3369H273.292L273.117 37.8557H299.052L298.886 37.3369Z" fill="#01C696"/>
<path d="M296.793 30.7275H288L288.166 31.2464H296.959L296.793 30.7275Z" fill="#01C696"/>
<path d="M409.184 16.5498L408.9 17.0686H424.149C424.79 16.7983 425.562 16.685 426.282 16.6457C426.639 16.6239 426.98 16.6196 427.285 16.6196H428.162V16.5498H409.184Z" fill="#01C696"/>
<path d="M417.939 21.2715V21.7903H422.279V21.3805C422.279 21.3456 422.279 21.3064 422.279 21.2715H417.939Z" fill="#01C696"/>
<path d="M210.598 56.3809C210.681 56.5509 210.75 56.7253 210.824 56.8997H214.772V56.3809H210.598Z" fill="#01C696"/>
<path d="M211.893 62.2275C211.901 62.4019 211.906 62.572 211.914 62.7464H214.776V62.2275H211.893Z" fill="#01C696"/>
<path d="M402.586 7.09766C403.563 7.43773 404.614 7.58596 405.709 7.58596C405.971 7.58596 406.228 7.57724 406.485 7.5598C407.292 7.50312 408.069 7.35489 408.806 7.09766H402.586Z" fill="#01C696"/>
<path d="M415.883 48.6729C415.591 48.7775 415.281 48.8603 414.963 48.917C414.95 48.917 414.941 48.917 414.928 48.9214C414.767 48.9475 414.601 48.9737 414.435 48.9911C413.899 49.0522 413.367 49.0652 412.913 49.0652H411.875V49.1917H428.157V49.0652H427.254C426.382 49.0652 425.23 49.0173 424.301 48.6729H415.883Z" fill="#01C696"/>
<path d="M211.322 58.335C211.366 58.505 211.405 58.6794 211.444 58.8538H214.777V58.335H211.322Z" fill="#01C696"/>
<path d="M211.705 60.2744C211.727 60.4488 211.744 60.6188 211.766 60.7932H214.771V60.2744H211.705Z" fill="#01C696"/>
<path d="M211.016 57.3574C211.077 57.5275 211.125 57.7019 211.181 57.8762H214.775V57.3574H211.02H211.016Z" fill="#01C696"/>
<path d="M214.776 61.7698V61.251H211.818C211.836 61.4254 211.845 61.5954 211.858 61.7698H214.776Z" fill="#01C696"/>
<path d="M211.543 59.3115C211.578 59.4816 211.604 59.656 211.63 59.8303H214.771V59.3115H211.543Z" fill="#01C696"/>
<path d="M428.162 14.2384V13.7676H410.715L410.453 14.2384H428.162Z" fill="#01C696"/>
<path d="M409.765 6.6741C410.058 6.5215 410.341 6.35147 410.616 6.15527H400.771C401.046 6.35147 401.33 6.5215 401.626 6.6741H409.765Z" fill="#01C696"/>
<path d="M409.185 4.26758C408.029 4.53789 406.79 4.60765 405.682 4.60765C404.574 4.60765 403.305 4.53789 402.136 4.26758H398.943C399.065 4.44633 399.192 4.61637 399.327 4.7864H412.042C412.172 4.61637 412.299 4.44633 412.417 4.26758H409.18H409.185Z" fill="#01C696"/>
<path d="M413.8 1.00242C413.8 1.00242 413.804 0.984853 413.808 0.97168H413.437C413.437 0.97168 413.428 0.989244 413.424 1.00242H413.8Z" fill="#01C696"/>
<path d="M397.818 1.9573H398.468C398.355 1.79163 398.246 1.61723 398.145 1.43848H397.652C397.705 1.61287 397.757 1.78727 397.818 1.9573Z" fill="#01C696"/>
<path d="M411.676 5.21777H399.703C399.817 5.33549 399.926 5.45757 400.048 5.57093C400.113 5.63196 400.183 5.67992 400.248 5.7366H411.139C411.205 5.67992 411.27 5.63196 411.336 5.57093C411.458 5.45757 411.567 5.33549 411.676 5.21777Z" fill="#01C696"/>
<path d="M400.824 3.845C400.667 3.7796 400.506 3.70984 400.357 3.63136C400.178 3.5398 400.013 3.43517 399.856 3.32617H398.395C398.486 3.50057 398.582 3.67496 398.682 3.845H400.824Z" fill="#01C696"/>
<path d="M412.562 2.37598C412.405 2.55909 412.23 2.73349 412.047 2.8948H413.172C413.246 2.72477 413.316 2.55037 413.382 2.37598H412.566H412.562Z" fill="#01C696"/>
<path d="M413.209 1.43848C413.114 1.61723 413 1.79163 412.887 1.9573H413.524C413.58 1.78727 413.633 1.61287 413.685 1.43848H413.214H413.209Z" fill="#01C696"/>
<path d="M399.297 2.8948C399.113 2.73349 398.948 2.55909 398.791 2.37598H397.971C398.036 2.55037 398.106 2.72477 398.184 2.8948H399.297Z" fill="#01C696"/>
<path d="M411.483 3.32565C411.339 3.42157 411.195 3.50876 411.038 3.5916C411.038 3.5916 411.034 3.5916 411.03 3.5916C411.025 3.5916 411.017 3.60032 411.012 3.60032C410.847 3.68752 410.676 3.766 410.502 3.84011H412.687C412.787 3.67008 412.879 3.49568 412.966 3.32129H411.483V3.32565Z" fill="#01C696"/>
<path d="M397.932 1.00242C397.932 1.00242 397.923 0.984853 397.919 0.97168H397.525C397.525 0.97168 397.53 0.989244 397.534 1.00242H397.936H397.932Z" fill="#01C696"/>
<path d="M16.4462 51.5156H0.164062V51.9167H16.4462V51.5156Z" fill="#01C696"/>
<path d="M139.219 26.9434H130.33V27.4622H139.219V26.9434Z" fill="#01C696"/>
<path d="M327.224 40.167H318.51V40.6858H327.224V40.167Z" fill="#01C696"/>
<path d="M163.021 41.4752C163.021 41.3575 163.016 41.2398 163.012 41.1221H153.564C153.573 41.2965 153.582 41.4665 153.586 41.6409H163.021C163.021 41.5842 163.021 41.5319 163.021 41.4752Z" fill="#01C696"/>
<path d="M348.287 40.6858H352.588L352.758 40.167H348.462L348.287 40.6858Z" fill="#01C696"/>
<path d="M97.3559 23.1631H88.4668V23.6819H97.3559V23.1631Z" fill="#01C696"/>
<path d="M242.539 33.1341H251.328L251.166 32.6152H242.373L242.539 33.1341Z" fill="#01C696"/>
<path d="M251.461 33.5576H242.668L242.834 34.0764H251.627L251.461 33.5576Z" fill="#01C696"/>
<path d="M97.3559 43.9512H88.4668V44.3043C88.4668 44.3566 88.4668 44.4177 88.4668 44.47H97.3559V43.9512Z" fill="#01C696"/>
<path d="M299.188 38.2793H272.979L272.809 38.7981H299.349L299.188 38.2793Z" fill="#01C696"/>
<path d="M252.958 38.2793H226.753L226.578 38.7981H253.123L252.958 38.2793Z" fill="#01C696"/>
<path d="M275.32 31.2464H279.586L279.756 30.7275H275.495L275.32 31.2464Z" fill="#01C696"/>
<path d="M209.25 54.4326C209.407 54.5939 209.555 54.7683 209.704 54.9514H214.776V54.4326H209.254H209.25Z" fill="#01C696"/>
<path d="M242.232 32.1839H251.025L250.863 31.665H242.07L242.232 32.1839Z" fill="#01C696"/>
<path d="M15.2468 49.1917C14.9371 49.1481 14.6318 49.0827 14.357 48.9911C14.0996 48.9039 13.8685 48.7949 13.6635 48.6729H3.04713C2.35799 48.9126 1.60342 49.0478 0.722358 49.1176C0.543529 49.1306 0.355976 49.1437 0.164062 49.1524V49.196H15.2468V49.1917Z" fill="#01C696"/>
<path d="M206.078 52.4795C206.51 52.619 206.924 52.7934 207.326 52.9983H214.775V52.4795H206.078Z" fill="#01C696"/>
<path d="M208.098 53.4561C208.329 53.613 208.556 53.7874 208.769 53.9749H214.771V53.4561H208.098Z" fill="#01C696"/>
<path d="M210.039 55.4092C210.091 55.4877 210.152 55.5661 210.205 55.649C210.261 55.7362 210.305 55.8364 210.357 55.928H214.78V55.4092H210.043H210.039Z" fill="#01C696"/>
<path d="M33.9321 20.8528L34.3595 20.334H29.1429C29.1211 20.3776 29.1037 20.4212 29.0819 20.4648L29.0208 20.5869L28.8027 20.8528H33.9364H33.9321Z" fill="#01C696"/>
<path d="M47.4277 42.5784H52.0904C51.6498 42.2994 51.1526 42.138 50.6423 42.0596H48.8845C48.3655 42.1424 47.877 42.3081 47.4277 42.5784Z" fill="#01C696"/>
<path d="M63.0937 43.9512H59.9664C59.9053 44.1256 59.8486 44.2956 59.7832 44.47H62.8669C62.9454 44.2956 63.0196 44.1212 63.0937 43.9512Z" fill="#01C696"/>
<path d="M82.5293 51.5156V51.9167H104.364C106.052 51.9167 108.154 51.8644 110.27 51.6246C110.566 51.5897 110.863 51.5549 111.155 51.5156H82.5293Z" fill="#01C696"/>
<path d="M40.936 49.1917C40.4126 49.0827 39.9285 48.9083 39.4749 48.6729H24.8458C24.5361 48.8254 24.1959 48.9388 23.8382 49.0129C23.5591 49.0696 23.2712 49.1045 22.9833 49.1306C22.7042 49.1568 22.4207 49.1699 22.1328 49.1742V49.1917H40.9317H40.936Z" fill="#01C696"/>
<path d="M383.172 16.5498V16.6196H383.826C384.751 16.6196 385.99 16.6675 386.945 17.0686H395.031C395.057 17.0599 395.079 17.0468 395.105 17.0381C395.245 16.9814 395.389 16.9378 395.537 16.8986C395.55 16.8986 395.563 16.8899 395.581 16.8855C396.44 16.6544 397.417 16.6239 398.172 16.6239H399.21V16.5542H383.176L383.172 16.5498Z" fill="#01C696"/>
<path d="M208.543 40.167H199.471V40.6858H208.543V40.167Z" fill="#01C696"/>
<path d="M327.224 37.3369H318.51V37.8557H327.224V37.3369Z" fill="#01C696"/>
<path d="M327.224 38.2793H318.51V38.7981H327.224V38.2793Z" fill="#01C696"/>
<path d="M299.784 40.167H291.004L291.17 40.6858H299.95L299.784 40.167Z" fill="#01C696"/>
<path d="M276.651 40.167H272.35L272.176 40.6858H276.481L276.651 40.167Z" fill="#01C696"/>
<path d="M327.224 36.3867H318.51V36.9055H327.224V36.3867Z" fill="#01C696"/>
<path d="M327.224 39.2295H318.51V39.7483H327.224V39.2295Z" fill="#01C696"/>
<path d="M350.973 32.6152L350.799 33.1341H355.082L355.252 32.6152H350.973Z" fill="#01C696"/>
<path d="M327.224 35.4492H318.51V35.968H327.224V35.4492Z" fill="#01C696"/>
<path d="M351.287 31.665L351.117 32.1839H355.392L355.562 31.665H351.287Z" fill="#01C696"/>
<path d="M327.224 34.5078H318.51V35.0266H327.224V34.5078Z" fill="#01C696"/>
<path d="M354.946 33.5576H350.659L350.484 34.0764H354.781L354.946 33.5576Z" fill="#01C696"/>
<path d="M253.555 40.167H244.779L244.941 40.6858H253.721L253.555 40.167Z" fill="#01C696"/>
<path d="M351.602 30.7275L351.428 31.2464H355.698L355.868 30.7275H351.602Z" fill="#01C696"/>
<path d="M139.219 38.2793H130.33V38.7981H139.219V38.2793Z" fill="#01C696"/>
<path d="M182.006 34.5078H172.947V35.0266H182.006V34.5078Z" fill="#01C696"/>
<path d="M152.151 36.9055H161.908C161.817 36.7311 161.729 36.5524 161.625 36.3867H151.676C151.846 36.5524 152.003 36.7224 152.147 36.9055H152.151Z" fill="#01C696"/>
<path d="M139.219 39.2295H130.33V39.7483H139.219V39.2295Z" fill="#01C696"/>
<path d="M182.006 33.5576H172.947V34.0764H182.006V33.5576Z" fill="#01C696"/>
<path d="M241.032 28.4036H249.826L249.664 27.8848H240.871L241.032 28.4036Z" fill="#01C696"/>
<path d="M139.219 40.167H130.33V40.6858H139.219V40.167Z" fill="#01C696"/>
<path d="M230.422 40.167H226.121L225.951 40.6858H230.252L230.422 40.167Z" fill="#01C696"/>
<path d="M182.006 40.167H172.947V40.6858H182.006V40.167Z" fill="#01C696"/>
<path d="M139.219 41.1221H130.33V41.6409H139.219V41.1221Z" fill="#01C696"/>
<path d="M139.219 37.3369H130.33V37.8557H139.219V37.3369Z" fill="#01C696"/>
<path d="M116.503 27.8848H109.075C108.944 28.0635 108.796 28.2379 108.639 28.4036H115.862C116.084 28.2379 116.293 28.0679 116.503 27.8848Z" fill="#01C696"/>
<path d="M110.1 25.5745H118.343C118.43 25.4045 118.509 25.2301 118.583 25.0557H110.204C110.178 25.2301 110.139 25.4045 110.1 25.5745Z" fill="#01C696"/>
<path d="M139.219 25.0557H130.33V25.5745H139.219V25.0557Z" fill="#01C696"/>
<path d="M182.006 25.0557H172.947V25.5745H182.006V25.0557Z" fill="#01C696"/>
<path d="M139.219 28.8359H130.33V29.3548H139.219V28.8359Z" fill="#01C696"/>
<path d="M151.187 35.968H161.336C161.214 35.7936 161.092 35.6149 160.961 35.4492H150.354C150.65 35.6018 150.929 35.7719 151.187 35.968Z" fill="#01C696"/>
<path d="M208.543 25.0557H199.471V25.5745H208.543V25.0557Z" fill="#01C696"/>
<path d="M182.006 41.1221H172.947V41.6409H182.006V41.1221Z" fill="#01C696"/>
<path d="M163.007 42.0596H153.582C153.582 42.234 153.573 42.4084 153.564 42.5784H162.981C162.994 42.404 163.003 42.234 163.007 42.0596Z" fill="#01C696"/>
<path d="M139.219 42.0596H130.33V42.5784H139.219V42.0596Z" fill="#01C696"/>
<path d="M139.219 36.3867H130.33V36.9055H139.219V36.3867Z" fill="#01C696"/>
<path d="M352.858 26.9434L352.688 27.4622H356.927L357.093 26.9434H352.858Z" fill="#01C696"/>
<path d="M338.232 25.5745H341.39V25.0557H338.176C338.202 25.2301 338.215 25.4001 338.237 25.5745H338.232Z" fill="#01C696"/>
<path d="M351.916 29.7734L351.746 30.2966H356.007L356.178 29.7734H351.916Z" fill="#01C696"/>
<path d="M230.984 25.5745H235.202L235.368 25.0557H231.154L230.984 25.5745Z" fill="#01C696"/>
<path d="M352.229 28.8359L352.055 29.3548H356.312L356.482 28.8359H352.229Z" fill="#01C696"/>
<path d="M352.548 27.8848L352.373 28.4036H356.621L356.787 27.8848H352.548Z" fill="#01C696"/>
<path d="M353.176 25.9932L353.002 26.512H357.233L357.403 25.9932H353.176Z" fill="#01C696"/>
<path d="M277.209 25.5745H281.427L281.597 25.0557H277.383L277.209 25.5745Z" fill="#01C696"/>
<path d="M240.138 25.5745H248.932L248.766 25.0557H239.973L240.138 25.5745Z" fill="#01C696"/>
<path d="M327.224 25.0557H318.51V25.5745H327.224V25.0557Z" fill="#01C696"/>
<path d="M304.338 25.5745H307.435C307.456 25.4001 307.47 25.2301 307.496 25.0557H304.338V25.5745Z" fill="#01C696"/>
<path d="M286.365 25.5745H295.158L294.996 25.0557H286.203L286.365 25.5745Z" fill="#01C696"/>
<path d="M208.543 41.1221H199.471V41.6409H208.543V41.1221Z" fill="#01C696"/>
<path d="M182.006 26.9434H172.947V27.4622H182.006V26.9434Z" fill="#01C696"/>
<path d="M208.543 26.9434H199.471V27.4622H208.543V26.9434Z" fill="#01C696"/>
<path d="M230.352 27.4622H234.587L234.752 26.9434H230.526L230.352 27.4622Z" fill="#01C696"/>
<path d="M240.736 27.4622H249.529L249.363 26.9434H240.57L240.736 27.4622Z" fill="#01C696"/>
<path d="M276.58 27.4622H280.815L280.981 26.9434H276.755L276.58 27.4622Z" fill="#01C696"/>
<path d="M162.937 40.167H153.459C153.485 40.3414 153.507 40.5114 153.524 40.6858H162.985C162.972 40.5114 162.954 40.337 162.937 40.167Z" fill="#01C696"/>
<path d="M182.006 27.8848H172.947V28.4036H182.006V27.8848Z" fill="#01C696"/>
<path d="M152.754 37.8557H162.362C162.293 37.6813 162.223 37.5069 162.14 37.3369H152.457C152.566 37.5069 152.662 37.677 152.754 37.8557Z" fill="#01C696"/>
<path d="M286.967 27.4622H295.76L295.594 26.9434H286.801L286.967 27.4622Z" fill="#01C696"/>
<path d="M182.006 36.3867H172.947V36.9055H182.006V36.3867Z" fill="#01C696"/>
<path d="M182.006 39.2295H172.947V39.7483H182.006V39.2295Z" fill="#01C696"/>
<path d="M182.006 35.4492H172.947V35.968H182.006V35.4492Z" fill="#01C696"/>
<path d="M162.776 39.2295H153.268C153.311 39.3995 153.35 39.5739 153.385 39.7483H162.876C162.846 39.5739 162.815 39.3995 162.776 39.2295Z" fill="#01C696"/>
<path d="M153.141 38.7981H162.671C162.623 38.6237 162.571 38.4493 162.514 38.2793H152.949C153.019 38.4493 153.084 38.6237 153.141 38.7981Z" fill="#01C696"/>
<path d="M304.338 26.9739H307.317C307.317 26.9739 307.317 26.9521 307.317 26.9434H304.338V26.9739Z" fill="#01C696"/>
<path d="M230.041 28.4036H234.281L234.451 27.8848H230.211L230.041 28.4036Z" fill="#01C696"/>
<path d="M208.543 27.8848H199.471V28.4036H208.543V27.8848Z" fill="#01C696"/>
<path d="M182.006 37.3369H172.947V37.8557H182.006V37.3369Z" fill="#01C696"/>
<path d="M327.224 26.9434H318.51V27.4622H327.224V26.9434Z" fill="#01C696"/>
<path d="M338.352 26.9739H341.392V26.9434H338.352C338.352 26.9434 338.352 26.9652 338.352 26.9739Z" fill="#01C696"/>
<path d="M327.224 32.6152H318.51V33.1341H327.224V32.6152Z" fill="#01C696"/>
<path d="M208.543 38.2793H199.471V38.7981H208.543V38.2793Z" fill="#01C696"/>
<path d="M182.006 38.2793H172.947V38.7981H182.006V38.2793Z" fill="#01C696"/>
<path d="M240.435 26.512H249.228L249.063 25.9932H240.27L240.435 26.512Z" fill="#01C696"/>
<path d="M139.219 25.9932H130.33V26.512H139.219V25.9932Z" fill="#01C696"/>
<path d="M109.82 26.512H117.772C117.894 26.342 118.012 26.1676 118.116 25.9932H109.995C109.942 26.1676 109.886 26.342 109.82 26.512Z" fill="#01C696"/>
<path d="M116.947 27.4622C117.069 27.3401 117.196 27.218 117.309 27.0872C117.353 27.0393 117.383 26.9913 117.427 26.9434H109.633C109.55 27.1221 109.458 27.2922 109.354 27.4622H116.947Z" fill="#01C696"/>
<path d="M208.543 25.9932H199.471V26.512H208.543V25.9932Z" fill="#01C696"/>
<path d="M230.67 26.512H234.896L235.062 25.9932H230.844L230.67 26.512Z" fill="#01C696"/>
<path d="M182.006 25.9932H172.947V26.512H182.006V25.9932Z" fill="#01C696"/>
<path d="M139.219 27.8848H130.33V28.4036H139.219V27.8848Z" fill="#01C696"/>
<path d="M182.006 30.7275H172.947V31.2464H182.006V30.7275Z" fill="#01C696"/>
<path d="M182.006 31.665H172.947V32.1839H182.006V31.665Z" fill="#01C696"/>
<path d="M182.006 29.7734H172.947V30.2923H182.006V29.7734Z" fill="#01C696"/>
<path d="M182.006 28.8359H172.947V29.3548H182.006V28.8359Z" fill="#01C696"/>
<path d="M253.258 39.2295H244.482L244.644 39.7483H253.424L253.258 39.2295Z" fill="#01C696"/>
<path d="M299.489 39.2295H290.713L290.874 39.7483H299.654L299.489 39.2295Z" fill="#01C696"/>
<path d="M276.961 39.2295H272.665L272.49 39.7483H276.791L276.961 39.2295Z" fill="#01C696"/>
<path d="M230.73 39.2295H226.434L226.26 39.7483H230.56L230.73 39.2295Z" fill="#01C696"/>
<path d="M327.224 33.5576H318.51V34.0764H327.224V33.5576Z" fill="#01C696"/>
<path d="M208.543 39.2295H199.471V39.7483H208.543V39.2295Z" fill="#01C696"/>
<path d="M286.666 26.512H295.459L295.293 25.9932H286.5L286.666 26.512Z" fill="#01C696"/>
<path d="M276.898 26.512H281.121L281.291 25.9932H277.069L276.898 26.512Z" fill="#01C696"/>
<path d="M182.006 32.6152H172.947V33.1341H182.006V32.6152Z" fill="#01C696"/>
<path d="M327.224 25.9932H318.51V26.512H327.224V25.9932Z" fill="#01C696"/>
<path d="M338.321 26.512H341.391V25.9932H338.281C338.299 26.1676 338.307 26.3376 338.316 26.512H338.321Z" fill="#01C696"/>
<path d="M304.338 26.512H307.347C307.361 26.3376 307.369 26.1676 307.387 25.9932H304.338V26.512Z" fill="#01C696"/>
<path d="M1.12741 15.1809H20.0571V14.6621H1.12305L1.12741 15.1809Z" fill="#01C696"/>
<path d="M82.5293 16.1311H116.376C116.263 16.0483 116.145 15.9698 116.018 15.8913C115.861 15.7911 115.696 15.6995 115.53 15.6123H82.5293V16.1311Z" fill="#01C696"/>
<path d="M77.5478 15.6123H66.5215V16.1311H77.5478V15.6123Z" fill="#01C696"/>
<path d="M61.5984 15.6123H45.748V16.1311H61.5984V15.6123Z" fill="#01C696"/>
<path d="M40.9633 15.6123H25.6582V16.1311H40.9633V15.6123Z" fill="#01C696"/>
<path d="M214.775 15.6123H194.275V16.1311H214.775V15.6123Z" fill="#01C696"/>
<path d="M16.5015 18.01C16.5931 17.8226 16.7065 17.6482 16.8461 17.4912H3.80469C4.06203 17.6482 4.315 17.8182 4.5549 18.01H16.4972H16.5015Z" fill="#01C696"/>
<path d="M187.267 15.6123H166.768V16.1311H187.267V15.6123Z" fill="#01C696"/>
<path d="M214.777 50.5605H166.768V51.0794H214.777V50.5605Z" fill="#01C696"/>
<path d="M58.6546 51.014C58.8116 50.8745 58.9687 50.7175 59.1213 50.5605H55.5229C55.2307 50.7567 54.9254 50.9311 54.6113 51.0794H58.5761C58.6023 51.0576 58.6328 51.0358 58.659 51.014H58.6546Z" fill="#01C696"/>
<path d="M49.1457 50.5605H46.9082C47.0565 50.7393 47.2179 50.9137 47.3923 51.0794H49.896C49.6343 50.9268 49.3813 50.7567 49.1457 50.5605Z" fill="#01C696"/>
<path d="M20.0303 36.9055H29.674L29.2858 36.3867H19.6465L20.0303 36.9055Z" fill="#01C696"/>
<path d="M42.3579 50.5605H22.1328V51.0794H42.3579V50.5605Z" fill="#01C696"/>
<path d="M28.1605 27.8848H22.9919L22.5645 28.4036H27.733L28.1605 27.8848Z" fill="#01C696"/>
<path d="M388.807 48.6729V49.1917H400.806L401.093 48.6729H388.807Z" fill="#01C696"/>
<path d="M388.807 47.7314V48.2503H401.325L401.608 47.7314H388.807Z" fill="#01C696"/>
<path d="M383.429 49.623H363.514V50.1419H383.429V49.623Z" fill="#01C696"/>
<path d="M400.566 49.623H388.807V50.1419H400.282L400.566 49.623Z" fill="#01C696"/>
<path d="M388.807 46.7812V47.3001H401.848L402.132 46.7812H388.807Z" fill="#01C696"/>
<path d="M356.457 16.1311H368.277L368.116 15.6123H356.631L356.457 16.1311Z" fill="#01C696"/>
<path d="M407.344 19.9021H416.944L417.227 19.3789H407.627L407.344 19.9021Z" fill="#01C696"/>
<path d="M280.357 16.1311H292.164L292.003 15.6123H280.528L280.357 16.1311Z" fill="#01C696"/>
<path d="M341.39 15.6123H304.338V16.1311H341.39V15.6123Z" fill="#01C696"/>
<path d="M234.129 16.1311H245.94L245.775 15.6123H234.299L234.129 16.1311Z" fill="#01C696"/>
<path d="M399.205 15.6123H383.172V16.1311H399.205V15.6123Z" fill="#01C696"/>
<path d="M356.29 50.5605H340.984V51.0794H356.29V50.5605Z" fill="#01C696"/>
<path d="M145.882 14.6621H124.396V15.1809H145.882V14.6621Z" fill="#01C696"/>
<path d="M187.267 14.6621H166.768V15.1809H187.267V14.6621Z" fill="#01C696"/>
<path d="M214.775 14.6621H194.275V15.1809H214.775V14.6621Z" fill="#01C696"/>
<path d="M280.672 15.1809H291.864L291.698 14.6621H280.846L280.672 15.1809Z" fill="#01C696"/>
<path d="M82.5298 15.1809H114.606C114.126 14.9804 113.62 14.8103 113.092 14.6621H82.5254V15.1809H82.5298Z" fill="#01C696"/>
<path d="M234.443 15.1809H245.635L245.474 14.6621H234.618L234.443 15.1809Z" fill="#01C696"/>
<path d="M17.3401 17.0686C17.6585 16.8594 18.0423 16.698 18.4872 16.5934C18.5657 16.576 18.6443 16.5629 18.7228 16.5498H1.23242C1.87359 16.6544 2.45369 16.8288 2.9989 17.0686H17.3401Z" fill="#01C696"/>
<path d="M20.0581 16.1311V15.6123H1.13281L1.13717 16.1311H20.0581Z" fill="#01C696"/>
<path d="M77.5478 14.6621H66.5215V15.1809H77.5478V14.6621Z" fill="#01C696"/>
<path d="M61.5984 14.6621H45.748V15.1809H61.5984V14.6621Z" fill="#01C696"/>
<path d="M40.9633 14.6621H25.6582V15.1809H40.9633V14.6621Z" fill="#01C696"/>
<path d="M307.318 50.5605H287.402V51.0794H307.318V50.5605Z" fill="#01C696"/>
<path d="M233.95 50.5605H218.658V51.0794H233.95V50.5605Z" fill="#01C696"/>
<path d="M333.639 50.5605H312.027V51.0794H333.639V50.5605Z" fill="#01C696"/>
<path d="M261.087 50.5605H241.172V51.0794H261.087V50.5605Z" fill="#01C696"/>
<path d="M280.179 50.5605H264.887V51.0794H280.179V50.5605Z" fill="#01C696"/>
<path d="M356.29 49.623H340.984V50.1419H356.29V49.623Z" fill="#01C696"/>
<path d="M356.775 15.1809H367.976L367.815 14.6621H356.946L356.775 15.1809Z" fill="#01C696"/>
<path d="M399.205 14.6621H383.172V15.1809H399.205V14.6621Z" fill="#01C696"/>
<path d="M341.39 14.6621H304.338V15.1809H341.39V14.6621Z" fill="#01C696"/>
<path d="M383.429 50.5605H363.514V51.0794H383.429V50.5605Z" fill="#01C696"/>
<path d="M407.859 18.9602H417.459L417.747 18.4414H408.143L407.859 18.9602Z" fill="#01C696"/>
<path d="M400.051 50.5605H388.807V51.0794H399.763L400.051 50.5605Z" fill="#01C696"/>
<path d="M145.882 15.6123H124.396V16.1311H145.882V15.6123Z" fill="#01C696"/>
<path d="M403.991 25.9932L403.707 26.512H413.298L413.586 25.9932H403.991Z" fill="#01C696"/>
<path d="M388.35 18.4414C388.424 18.6071 388.485 18.7815 388.537 18.9602H393.427C393.479 18.7815 393.544 18.6071 393.619 18.4414H388.35Z" fill="#01C696"/>
<path d="M404.509 25.0557L404.221 25.5745H413.816L414.104 25.0557H404.509Z" fill="#01C696"/>
<path d="M403.467 26.9434L403.184 27.4622H412.775L413.063 26.9434H403.467Z" fill="#01C696"/>
<path d="M402.952 27.8848L402.664 28.4036H412.26L412.543 27.8848H402.952Z" fill="#01C696"/>
<path d="M388.727 19.9026H393.229C393.25 19.7282 393.281 19.5538 393.316 19.3838H388.645C388.679 19.5538 388.71 19.7282 388.732 19.9026H388.727Z" fill="#01C696"/>
<path d="M402.428 28.8359L402.141 29.3548H411.732L412.02 28.8359H402.428Z" fill="#01C696"/>
<path d="M407.104 20.334L406.82 20.8528H416.416L416.704 20.334H407.104Z" fill="#01C696"/>
<path d="M406.065 22.2217L405.777 22.7449H415.377L415.661 22.2217H406.065Z" fill="#01C696"/>
<path d="M405.547 23.1631L405.264 23.6819H414.859L415.143 23.1631H405.547Z" fill="#01C696"/>
<path d="M406.589 21.2715L406.301 21.7903H415.901L416.184 21.2715H406.589Z" fill="#01C696"/>
<path d="M405.024 24.1143L404.74 24.6331H414.336L414.619 24.1143H405.024Z" fill="#01C696"/>
<path d="M397.753 37.3369L397.465 37.8557H407.052L407.335 37.3369H397.753Z" fill="#01C696"/>
<path d="M333.639 49.623H312.027V50.1419H333.639V49.623Z" fill="#01C696"/>
<path d="M398.791 35.4492L398.508 35.968H408.09L408.378 35.4492H398.791Z" fill="#01C696"/>
<path d="M396.709 39.2295L396.426 39.7483H406.008L406.292 39.2295H396.709Z" fill="#01C696"/>
<path d="M397.233 38.2793L396.949 38.7981H406.532L406.815 38.2793H397.233Z" fill="#01C696"/>
<path d="M401.908 29.7734L401.625 30.2966H411.216L411.5 29.7734H401.908Z" fill="#01C696"/>
<path d="M400.872 31.665L400.584 32.1839H410.175L410.463 31.665H400.872Z" fill="#01C696"/>
<path d="M401.385 30.7275L401.102 31.2464H410.693L410.976 30.7275H401.385Z" fill="#01C696"/>
<path d="M396.196 40.167L395.908 40.6858H405.491L405.779 40.167H396.196Z" fill="#01C696"/>
<path d="M400.348 32.6152L400.061 33.1341H409.652L409.935 32.6152H400.348Z" fill="#01C696"/>
<path d="M399.828 33.5576L399.545 34.0764H409.132L409.42 33.5576H399.828Z" fill="#01C696"/>
<path d="M398.276 36.3867L397.988 36.9055H407.575L407.859 36.3867H398.276Z" fill="#01C696"/>
<path d="M59.9281 49.623H56.6743C56.4868 49.8062 56.2905 49.9806 56.0898 50.1419H59.5007C59.6446 49.9762 59.7842 49.8018 59.9238 49.623H59.9281Z" fill="#01C696"/>
<path d="M124.396 51.5156V51.9167H148.233C149.127 51.9167 150.1 51.8949 151.112 51.8252C151.993 51.7641 152.9 51.6639 153.794 51.5156H124.396Z" fill="#01C696"/>
<path d="M48.3553 49.7931L48.207 49.623H46.2617C46.3577 49.8018 46.4667 49.9718 46.5801 50.1419H48.6868C48.5734 50.0285 48.46 49.9108 48.3553 49.7931Z" fill="#01C696"/>
<path d="M42.3579 49.623H22.1328V50.1419H42.3579V49.623Z" fill="#01C696"/>
<path d="M20.7295 37.8557H30.3819L29.9937 37.3369H20.3457L20.7295 37.8557Z" fill="#01C696"/>
<path d="M214.777 49.623H166.768V50.1419H214.777V49.623Z" fill="#01C696"/>
<path d="M280.179 49.623H264.887V50.1419H280.179V49.623Z" fill="#01C696"/>
<path d="M307.318 49.623H287.402V50.1419H307.318V49.623Z" fill="#01C696"/>
<path d="M394.311 17.4912H387.646C387.646 17.4912 387.69 17.5174 387.708 17.5348C387.865 17.6743 387.991 17.8356 388.109 18.01H393.853C393.967 17.8356 394.093 17.6743 394.246 17.5348C394.263 17.5174 394.289 17.5043 394.311 17.4912Z" fill="#01C696"/>
<path d="M261.087 49.623H241.172V50.1419H261.087V49.623Z" fill="#01C696"/>
<path d="M233.95 49.623H218.658V50.1419H233.95V49.623Z" fill="#01C696"/>
<path d="M28.9335 26.9434H23.7692L23.3418 27.4622H28.506L28.9335 26.9434Z" fill="#01C696"/>
<path d="M233.814 17.0686H246.237L246.071 16.5498H233.989L233.814 17.0686Z" fill="#01C696"/>
<path d="M194.275 16.619H194.537C195.453 16.619 196.705 16.6714 197.651 17.0681H210.414C210.592 16.994 210.776 16.9286 210.972 16.8763C211.827 16.6452 212.799 16.6147 213.554 16.6147H214.775V16.5449H194.275V16.6147V16.619Z" fill="#01C696"/>
<path d="M280.043 17.0686H292.465L292.299 16.5498H280.213L280.043 17.0686Z" fill="#01C696"/>
<path d="M356.143 17.0686H368.578L368.412 16.5498H356.317L356.143 17.0686Z" fill="#01C696"/>
<path d="M304.338 17.0686H313.811C314.405 16.9204 315.02 16.8245 315.643 16.7809C315.984 16.7547 316.328 16.7416 316.677 16.7416H318.509V17.0686H327.224V16.7416H327.237H329.104C330.076 16.7416 331.031 16.8419 331.939 17.0686H341.39V16.5498H304.338V17.0686Z" fill="#01C696"/>
<path d="M27.6125 16.8419C27.7957 16.9073 27.9615 16.9858 28.1185 17.0686H38.3466C38.9704 16.8201 39.6421 16.6501 40.3792 16.5498H26.3477C26.7882 16.6108 27.22 16.7024 27.6125 16.8419Z" fill="#01C696"/>
<path d="M166.768 16.6191H168.015C168.931 16.6191 170.183 16.6714 171.129 17.0682H183.892C183.918 17.0595 183.94 17.0464 183.966 17.0377C184.105 16.981 184.249 16.9374 184.397 16.8981C184.411 16.8981 184.424 16.8894 184.441 16.8851C185.3 16.654 186.277 16.6235 187.032 16.6235H187.267V16.5537H166.768V16.6235V16.6191Z" fill="#01C696"/>
<path d="M68.847 16.6453C69.0913 16.7543 69.305 16.8981 69.4882 17.0725H75.2849C75.6862 16.8545 76.1311 16.6976 76.5934 16.5842C76.637 16.5755 76.6806 16.5624 76.7242 16.5537H68.5723C68.6639 16.5842 68.7642 16.606 68.8514 16.6453H68.847Z" fill="#01C696"/>
<path d="M48.4962 17.0686H58.4321C58.6328 16.8986 58.8683 16.7591 59.13 16.6588C59.239 16.6152 59.3568 16.5847 59.4702 16.5498H47.541C47.8812 16.6719 48.204 16.8419 48.5006 17.0686H48.4962Z" fill="#01C696"/>
<path d="M124.396 16.619H125.4C126.316 16.619 127.554 16.667 128.505 17.0681H141.08C141.577 16.8588 142.149 16.7455 142.716 16.6844C143.256 16.6278 143.789 16.6147 144.238 16.6147H145.882V16.5449H124.396V16.6147V16.619Z" fill="#01C696"/>
<path d="M82.5293 16.6196H83.5325C84.4484 16.6196 85.7002 16.6719 86.6511 17.0686H97.3546V16.6196H97.3808H101.572C102.842 16.6196 104.294 16.7155 105.629 17.0686H117.453C117.288 16.8899 117.109 16.7155 116.917 16.5498H82.5337V16.6196H82.5293Z" fill="#01C696"/>
<path d="M399.305 34.5078L399.021 35.0266H408.608L408.896 34.5078H399.305Z" fill="#01C696"/>
<path d="M422.279 33.5576H417.939V34.0764H422.279V33.5576Z" fill="#01C696"/>
<path d="M422.279 34.5078H417.939V35.0266H422.279V34.5078Z" fill="#01C696"/>
<path d="M422.279 31.665H417.939V32.1839H422.279V31.665Z" fill="#01C696"/>
<path d="M428.163 49.623H411.881V50.1419H428.163V49.623Z" fill="#01C696"/>
<path d="M422.279 35.4492H417.939V35.968H422.279V35.4492Z" fill="#01C696"/>
<path d="M422.279 36.3867H417.939V36.9055H422.279V36.3867Z" fill="#01C696"/>
<path d="M422.279 26.9434H417.939V27.4622H422.279V26.9434Z" fill="#01C696"/>
<path d="M422.279 37.3369H417.939V37.8557H422.279V37.3369Z" fill="#01C696"/>
<path d="M422.279 30.7275H417.939V31.2464H422.279V30.7275Z" fill="#01C696"/>
<path d="M422.279 25.9932H417.939V26.512H422.279V25.9932Z" fill="#01C696"/>
<path d="M422.279 29.7734H417.939V30.2923H422.279V29.7734Z" fill="#01C696"/>
<path d="M422.279 28.8359H417.939V29.3548H422.279V28.8359Z" fill="#01C696"/>
<path d="M422.279 27.8848H417.939V28.4036H422.279V27.8848Z" fill="#01C696"/>
<path d="M417.925 44.8887C417.921 45.0587 417.908 45.2331 417.895 45.4075H422.317C422.304 45.2331 422.291 45.0587 422.287 44.8887H417.925Z" fill="#01C696"/>
<path d="M422.279 38.2793H417.939V38.7981H422.279V38.2793Z" fill="#01C696"/>
<path d="M417.851 45.8389C417.83 46.0133 417.799 46.1877 417.76 46.3577H422.457C422.418 46.1877 422.392 46.0133 422.366 45.8389H417.851Z" fill="#01C696"/>
<path d="M423.015 47.7314H417.192C417.088 47.8797 416.97 48.0148 416.835 48.1326C416.835 48.1326 416.826 48.1413 416.822 48.1456C416.778 48.1849 416.726 48.211 416.678 48.2503H423.521C423.473 48.2154 423.421 48.1849 423.377 48.1456C423.242 48.0236 423.124 47.8797 423.02 47.7314H423.015Z" fill="#01C696"/>
<path d="M417.646 46.7812C417.589 46.96 417.524 47.1344 417.445 47.3001H422.767C422.688 47.1344 422.623 46.96 422.57 46.7812H417.646Z" fill="#01C696"/>
<path d="M422.273 43.9512H417.934V44.3043C417.934 44.3566 417.934 44.4177 417.934 44.47H422.278C422.278 44.4177 422.278 44.3566 422.278 44.3043V43.9512H422.273Z" fill="#01C696"/>
<path d="M422.279 43.0098H417.939V43.5286H422.279V43.0098Z" fill="#01C696"/>
<path d="M422.279 40.167H417.939V40.6858H422.279V40.167Z" fill="#01C696"/>
<path d="M422.279 39.2295H417.939V39.7483H422.279V39.2295Z" fill="#01C696"/>
<path d="M422.279 41.1221H417.939V41.6409H422.279V41.1221Z" fill="#01C696"/>
<path d="M422.279 42.0596H417.939V42.5784H422.279V42.0596Z" fill="#01C696"/>
<path d="M422.279 32.6152H417.939V33.1341H422.279V32.6152Z" fill="#01C696"/>
<path d="M187.267 13.7676H166.768V14.2428H187.267V13.7676Z" fill="#01C696"/>
<path d="M145.882 13.7676H124.396V14.2428H145.882V13.7676Z" fill="#01C696"/>
<path d="M214.775 13.7676H194.275V14.2428H214.775V13.7676Z" fill="#01C696"/>
<path d="M5.59417 18.9602H16.2846C16.2846 18.7815 16.3065 18.6071 16.3457 18.4414H5.06641C5.24524 18.6071 5.4197 18.7771 5.59417 18.9602Z" fill="#01C696"/>
<path d="M341.39 13.7676H304.338V14.2428H341.39V13.7676Z" fill="#01C696"/>
<path d="M422.279 25.0557H417.939V25.5745H422.279V25.0557Z" fill="#01C696"/>
<path d="M40.9633 13.7676H25.6582V14.2428H40.9633V13.7676Z" fill="#01C696"/>
<path d="M20.058 14.2384V13.7676H1.11523L1.1196 14.2384H20.058Z" fill="#01C696"/>
<path d="M61.5984 13.7676H45.748V14.2428H61.5984V13.7676Z" fill="#01C696"/>
<path d="M77.5478 13.7676H66.5215V14.2428H77.5478V13.7676Z" fill="#01C696"/>
<path d="M111.247 14.2389C109.105 13.8552 106.85 13.7637 105.005 13.7637H82.5293V14.2389H111.247Z" fill="#01C696"/>
<path d="M245.337 14.2384L245.189 13.7676H234.913L234.756 14.2384H245.337Z" fill="#01C696"/>
<path d="M422.279 22.2217H417.939V22.7405H422.279V22.2217Z" fill="#01C696"/>
<path d="M417.939 19.3789V19.8977H422.362C422.384 19.7233 422.415 19.5489 422.449 19.3789H417.939Z" fill="#01C696"/>
<path d="M417.939 20.334V20.8528H422.288C422.292 20.6828 422.301 20.5084 422.319 20.334H417.944H417.939Z" fill="#01C696"/>
<path d="M422.279 23.1631H417.939V23.6819H422.279V23.1631Z" fill="#01C696"/>
<path d="M422.279 24.1143H417.939V24.6331H422.279V24.1143Z" fill="#01C696"/>
<path d="M367.678 14.2384L367.53 13.7676H357.241L357.084 14.2384H367.678Z" fill="#01C696"/>
<path d="M417.939 18.4414V18.9602H422.558C422.611 18.7815 422.676 18.6071 422.75 18.4414H417.944H417.939Z" fill="#01C696"/>
<path d="M410.223 14.6621L409.939 15.1809H428.163V14.6621H410.223Z" fill="#01C696"/>
<path d="M399.205 13.7676H383.172V14.2428H399.205V13.7676Z" fill="#01C696"/>
<path d="M409.7 15.6123L409.416 16.1311H428.163V15.6123H409.7Z" fill="#01C696"/>
<path d="M423.439 17.4912H408.666L408.383 18.01H422.986C423.099 17.8356 423.226 17.6743 423.378 17.5348C423.396 17.5174 423.422 17.5043 423.439 17.4912Z" fill="#01C696"/>
<path d="M291.568 14.2384L291.419 13.7676H281.143L280.986 14.2384H291.568Z" fill="#01C696"/>
<path d="M26.8704 33.1341L26.4866 32.6152H15.9531L16.3413 33.1341H26.8704Z" fill="#01C696"/>
<path d="M27.5683 34.0764L27.1845 33.5576H16.6292L16.2148 34.0764H27.5683Z" fill="#01C696"/>
<path d="M26.1643 32.1839L25.7761 31.665H15.2383L15.6308 32.1839H26.1643Z" fill="#01C696"/>
<path d="M28.275 35.0266L27.8911 34.5078H15.866L15.4473 35.0266H28.275Z" fill="#01C696"/>
<path d="M15.9798 40.6858C16.1194 40.5114 16.2589 40.3414 16.3985 40.167H11.3172L10.8984 40.6858H15.9754H15.9798Z" fill="#01C696"/>
<path d="M25.4655 31.2464L25.435 31.2028L25.8275 30.7275H14.5352L14.9233 31.2464H25.4655Z" fill="#01C696"/>
<path d="M28.973 35.968L28.5892 35.4492H15.1116L14.6973 35.968H28.973Z" fill="#01C696"/>
<path d="M16.742 39.7483C16.8815 39.5739 17.0211 39.4039 17.1607 39.2295H12.075L11.6562 39.7483H16.7376H16.742Z" fill="#01C696"/>
<path d="M17.5105 38.7981C17.65 38.6237 17.7896 38.4537 17.9292 38.2793H12.8347L12.416 38.7981H17.5061H17.5105Z" fill="#01C696"/>
<path d="M18.2726 37.8557C18.3599 37.7467 18.4471 37.6377 18.5343 37.5287L18.6914 37.3369H13.5925L13.1738 37.8557H18.2683H18.2726Z" fill="#01C696"/>
<path d="M19.0359 36.9055L19.4546 36.3867H14.3558L13.9414 36.9055H19.0359Z" fill="#01C696"/>
<path d="M26.1813 30.2966L26.6088 29.7734H13.8203L14.2085 30.2966H26.1813Z" fill="#01C696"/>
<path d="M17.5178 21.7903C17.496 21.7554 17.4698 21.7206 17.4437 21.6857C17.3564 21.5592 17.2605 21.4154 17.1645 21.2715H7.43359L7.82178 21.7903H17.5134H17.5178Z" fill="#01C696"/>
<path d="M18.8457 23.6819C18.7235 23.5119 18.6058 23.3375 18.4837 23.1631H8.85742L9.24561 23.6819H18.8457Z" fill="#01C696"/>
<path d="M18.1866 22.7444C18.0645 22.57 17.9424 22.4 17.8246 22.2256H8.15039L8.53858 22.7444H18.1823H18.1866Z" fill="#01C696"/>
<path d="M16.8951 20.8528C16.7861 20.6741 16.6858 20.4997 16.6073 20.334H6.73242L7.12061 20.8528H16.8951Z" fill="#01C696"/>
<path d="M16.4378 19.9026C16.3811 19.7239 16.3462 19.5538 16.3201 19.3838H5.97852C6.11809 19.5495 6.25766 19.7239 6.39724 19.9026H16.4378Z" fill="#01C696"/>
<path d="M20.2006 25.5745C20.0741 25.4001 19.952 25.2301 19.8255 25.0557H10.2734L10.6616 25.5745H20.1963H20.2006Z" fill="#01C696"/>
<path d="M21.5614 27.4622L21.4437 27.2965C21.3608 27.1788 21.2736 27.0611 21.1907 26.9434H11.6953L12.0835 27.4622H21.5571H21.5614Z" fill="#01C696"/>
<path d="M22.2384 28.4036L21.8633 27.8848H12.3984L12.791 28.4036H22.2384Z" fill="#01C696"/>
<path d="M19.5256 24.6331C19.3991 24.4587 19.277 24.2887 19.1505 24.1143H9.57227L9.96045 24.6331H19.5256Z" fill="#01C696"/>
<path d="M20.8771 26.512C20.7506 26.3376 20.6285 26.1676 20.502 25.9932H10.9805L11.3687 26.512H20.8728H20.8771Z" fill="#01C696"/>
<path d="M26.9529 29.3548L27.3803 28.8359H13.1133L13.5058 29.3548H26.9529Z" fill="#01C696"/>
<path d="M7.11178 45.4075H12.6511C12.6904 45.2985 12.734 45.1895 12.7863 45.0805C12.8169 45.0151 12.8561 44.9497 12.8866 44.8887H7.52614L7.13359 45.377C7.13359 45.377 7.11615 45.3988 7.10742 45.4075H7.11178Z" fill="#01C696"/>
<path d="M280.179 51.5156H264.887V51.9167H280.179V51.5156Z" fill="#01C696"/>
<path d="M54.0391 52.9983C54.8067 52.9155 55.5395 52.7454 56.2417 52.4795H49.5684C50.2444 52.7498 50.9554 52.9155 51.6969 52.9983H54.0391Z" fill="#01C696"/>
<path d="M166.768 51.5156V51.9167H202.102C202.76 51.9167 203.406 51.956 204.043 52.0345H214.777V51.5156H166.768Z" fill="#01C696"/>
<path d="M233.95 51.5156H218.658V51.9167H233.95V51.5156Z" fill="#01C696"/>
<path d="M307.318 51.5156H287.402V51.9167H307.318V51.5156Z" fill="#01C696"/>
<path d="M261.087 51.5156H241.172V51.9167H261.087V51.5156Z" fill="#01C696"/>
<path d="M428.163 51.5156H411.881V51.9167H428.163V51.5156Z" fill="#01C696"/>
<path d="M333.639 51.5156H312.027V51.9167H333.639V51.5156Z" fill="#01C696"/>
<path d="M388.807 51.5156V51.9167H399.305L399.528 51.5156H388.807Z" fill="#01C696"/>
<path d="M383.429 51.5156H363.514V51.9167H383.429V51.5156Z" fill="#01C696"/>
<path d="M356.29 51.5156H340.984V51.9167H356.29V51.5156Z" fill="#01C696"/>
<path d="M13.1259 44.47C13.2349 44.2956 13.3527 44.1212 13.4704 43.9512H8.28005L7.86133 44.47H13.1215H13.1259Z" fill="#01C696"/>
<path d="M15.22 41.6409C15.3291 41.5057 15.4338 41.3662 15.5428 41.2311C15.5733 41.1962 15.5995 41.1613 15.63 41.1221H10.5574L10.1387 41.6409H15.22Z" fill="#01C696"/>
<path d="M428.163 50.5605H411.881V51.0794H428.163V50.5605Z" fill="#01C696"/>
<path d="M12.442 46.3626C12.4551 46.1925 12.4813 46.0181 12.5249 45.8438H6.7544C6.60174 46.0269 6.44908 46.2013 6.30078 46.3626H12.442Z" fill="#01C696"/>
<path d="M13.7805 43.5286C13.811 43.485 13.8459 43.4414 13.8765 43.4022C13.9724 43.2714 14.0727 43.1406 14.1731 43.0098H9.04372L8.625 43.5286H13.7849H13.7805Z" fill="#01C696"/>
<path d="M14.4967 42.5784C14.6275 42.404 14.7627 42.2296 14.8936 42.0596H9.80349L9.38477 42.5784H14.4923H14.4967Z" fill="#01C696"/>
<path d="M57.2106 52.0345C57.4941 51.8775 57.7689 51.7118 58.0393 51.5156H53.3331C53.1368 51.5592 52.9362 51.5941 52.7355 51.6203C52.5 51.6464 52.2645 51.6639 52.0202 51.6639C51.6451 51.6639 51.2831 51.6115 50.9342 51.52H47.8984C48.1427 51.7118 48.3913 51.8862 48.653 52.0388H57.215L57.2106 52.0345Z" fill="#01C696"/>
<path d="M42.3579 51.5156H22.1328V51.9167H42.3579V51.5156Z" fill="#01C696"/>
<path d="M16.4436 50.5214L0.166016 50.5977L0.168474 51.1165L16.4461 51.0402L16.4436 50.5214Z" fill="#01C696"/>
<path d="M13.1179 48.2503C12.9608 48.0933 12.8256 47.9189 12.7253 47.7314H4.81323C4.54716 47.9276 4.2811 48.102 4.00195 48.2503H13.1179Z" fill="#01C696"/>
<path d="M16.4354 49.5839L0.162109 49.6602L0.164568 50.179L16.4378 50.1027L16.4354 49.5839Z" fill="#01C696"/>
<path d="M12.5429 47.3001C12.4906 47.1344 12.4601 46.96 12.4426 46.7812H5.89573C5.70818 46.9687 5.52499 47.1388 5.3418 47.3001H12.5386H12.5429Z" fill="#01C696"/>
<path d="M63.6648 42.5784L63.8785 42.0596H59.8047L60.0228 42.5784H63.6648Z" fill="#01C696"/>
<path d="M130.25 19.9026H139.297C139.318 19.7282 139.344 19.5538 139.384 19.3838H130.172C130.207 19.5538 130.233 19.7282 130.255 19.9026H130.25Z" fill="#01C696"/>
<path d="M232.873 19.9021H237.043L237.209 19.3789H233.048L232.873 19.9021Z" fill="#01C696"/>
<path d="M172.87 19.9026H182.09C182.112 19.7282 182.142 19.5538 182.177 19.3838H172.791C172.826 19.5538 172.852 19.7282 172.874 19.9026H172.87Z" fill="#01C696"/>
<path d="M199.393 19.9026H208.622C208.644 19.7282 208.67 19.5538 208.71 19.3838H199.314C199.349 19.5538 199.376 19.7282 199.397 19.9026H199.393Z" fill="#01C696"/>
<path d="M238.337 19.9021H247.135L246.969 19.3789H238.176L238.337 19.9021Z" fill="#01C696"/>
<path d="M279.102 19.9021H283.267L283.437 19.3789H279.272L279.102 19.9021Z" fill="#01C696"/>
<path d="M109.537 19.9026H118.915C118.871 19.7282 118.828 19.5538 118.775 19.3838H109.219C109.337 19.5538 109.441 19.7239 109.537 19.9026Z" fill="#01C696"/>
<path d="M284.566 19.9021H293.359L293.198 19.3789H284.4L284.566 19.9021Z" fill="#01C696"/>
<path d="M60.2071 25.0557H52.6309L52.8533 25.5745H60.4339L60.2071 25.0557Z" fill="#01C696"/>
<path d="M50.44 19.9026H58.0075C57.9465 19.7282 57.8985 19.5538 57.8549 19.3838H50.1914C50.2786 19.5582 50.3615 19.7326 50.44 19.9026Z" fill="#01C696"/>
<path d="M88.391 19.9026H97.3543V19.3838H88.3125C88.3474 19.5538 88.3736 19.7282 88.3954 19.9026H88.391Z" fill="#01C696"/>
<path d="M69.8105 19.9026H73.0207C73.0993 19.7282 73.1865 19.5582 73.2737 19.3838H69.9545C69.9109 19.5538 69.8629 19.7282 69.8105 19.9026Z" fill="#01C696"/>
<path d="M355.199 19.9021H359.382L359.548 19.3789H355.374L355.199 19.9021Z" fill="#01C696"/>
<path d="M393.147 22.2217H388.807V22.7405H393.147V22.2217Z" fill="#01C696"/>
<path d="M393.147 23.1631H388.807V23.6819H393.147V23.1631Z" fill="#01C696"/>
<path d="M361.267 21.7903H370.073L369.907 21.2715H361.105L361.267 21.7903Z" fill="#01C696"/>
<path d="M393.147 24.1143H388.807V24.6331H393.147V24.1143Z" fill="#01C696"/>
<path d="M393.147 25.0557H388.807V25.5745H393.147V25.0557Z" fill="#01C696"/>
<path d="M360.805 20.334L360.97 20.8528H369.772L369.611 20.334H360.805Z" fill="#01C696"/>
<path d="M304.338 19.9026H309.432C309.476 19.8459 309.511 19.7805 309.554 19.7239C309.65 19.6061 309.746 19.4928 309.847 19.3838H304.338V19.9026Z" fill="#01C696"/>
<path d="M327.224 19.3789H318.51V19.8977H327.224V19.3789Z" fill="#01C696"/>
<path d="M336.14 19.7108C336.188 19.7718 336.228 19.8416 336.271 19.9026H341.392V19.3838H335.861C335.957 19.4884 336.049 19.5974 336.136 19.7108H336.14Z" fill="#01C696"/>
<path d="M360.504 19.3789L360.67 19.9021H369.472L369.31 19.3789H360.504Z" fill="#01C696"/>
<path d="M67.7695 32.6152H64.7948L64.5898 33.1341H67.5558L67.7695 32.6152Z" fill="#01C696"/>
<path d="M228.712 46.7812H223.687C223.583 46.96 223.469 47.1344 223.352 47.3001H228.834C228.777 47.1344 228.734 46.96 228.712 46.7812Z" fill="#01C696"/>
<path d="M351.052 46.7812H346.027C345.923 46.96 345.809 47.1344 345.691 47.3001H351.17C351.113 47.1344 351.074 46.96 351.048 46.7812H351.052Z" fill="#01C696"/>
<path d="M378.248 46.7812H368.883C368.857 46.9644 368.809 47.1344 368.748 47.3001H378.579C378.462 47.1344 378.352 46.96 378.248 46.7812Z" fill="#01C696"/>
<path d="M368.834 45.8389C368.86 45.9653 368.886 46.0917 368.899 46.2138L368.912 46.2879V46.3577H378.02C377.932 46.1877 377.854 46.0133 377.78 45.8389H368.838H368.834Z" fill="#01C696"/>
<path d="M302.14 46.7812H292.78C292.754 46.9644 292.706 47.1344 292.641 47.3001H302.467C302.35 47.1344 302.241 46.96 302.136 46.7812H302.14Z" fill="#01C696"/>
<path d="M274.941 46.7812H269.916C269.811 46.96 269.698 47.1344 269.58 47.3001H275.063C275.006 47.1344 274.962 46.96 274.941 46.7812Z" fill="#01C696"/>
<path d="M327.483 46.899C327.469 46.8597 327.461 46.8205 327.452 46.7812H318.279C318.271 46.8205 318.262 46.8641 318.249 46.899C318.205 47.0385 318.153 47.1736 318.092 47.3001H327.635C327.574 47.1736 327.522 47.0385 327.483 46.899Z" fill="#01C696"/>
<path d="M58.8318 39.7483H64.8335L65.0472 39.2295H58.6094L58.8318 39.7483Z" fill="#01C696"/>
<path d="M355.514 18.9602H359.683L359.854 18.4414H355.688L355.514 18.9602Z" fill="#01C696"/>
<path d="M388.807 21.3761V21.7903H393.147V21.3805C393.147 21.3456 393.147 21.3064 393.147 21.2715H388.807C388.807 21.3064 388.807 21.3412 388.807 21.3761Z" fill="#01C696"/>
<path d="M368.586 44.8887C368.608 44.9759 368.634 45.0631 368.656 45.1415C368.682 45.2287 368.704 45.3203 368.73 45.4075H377.597C377.527 45.2331 377.462 45.0587 377.405 44.8887H368.586Z" fill="#01C696"/>
<path d="M393.147 43.9512H388.807V44.47H393.147V43.9512Z" fill="#01C696"/>
<path d="M360.369 18.9602H369.175L369.009 18.4414H360.203L360.369 18.9602Z" fill="#01C696"/>
<path d="M119.612 47.7314H108.411C108.053 47.932 107.674 48.102 107.281 48.2503H119.18C119.333 48.0846 119.477 47.9102 119.612 47.7314Z" fill="#01C696"/>
<path d="M97.355 47.7314H87.7462C87.6415 47.884 87.5281 48.0236 87.3885 48.1456C87.3449 48.1849 87.2882 48.2154 87.2402 48.2503H97.3506V47.7314H97.355Z" fill="#01C696"/>
<path d="M61.7366 46.7812H58.7532C58.6616 46.9556 58.5613 47.13 58.4609 47.3001H61.4487C61.5446 47.13 61.6406 46.9556 61.7322 46.7812H61.7366Z" fill="#01C696"/>
<path d="M255.914 46.7812H246.545C246.519 46.9644 246.471 47.1344 246.41 47.3001H256.246C256.128 47.1344 256.019 46.96 255.914 46.7812Z" fill="#01C696"/>
<path d="M49.4062 47.7309L49.5197 47.7484C49.6069 47.7614 49.7072 47.7745 49.8032 47.7876C49.8468 47.7876 49.8991 47.7876 49.9471 47.792C50.0212 47.792 50.0998 47.7963 50.1739 47.7963C50.2219 47.7963 50.2742 47.7963 50.3222 47.7963C50.4225 47.7963 50.5228 47.7963 50.6232 47.7876C50.7889 47.7789 50.9503 47.7571 51.1117 47.7266H49.4062V47.7309Z" fill="#01C696"/>
<path d="M46.0581 47.1863H46.0886H46.0799L46.7909 47.304H52.2168C52.3302 47.2255 52.4436 47.1427 52.5483 47.0424C52.6312 46.9596 52.7053 46.8767 52.7707 46.7852H45.5391C45.5478 46.9596 45.5565 47.1339 45.574 47.304H46.1584L46.0581 47.1906V47.1863Z" fill="#01C696"/>
<path d="M139.218 47.7314H129.627C129.513 47.8971 129.391 48.0541 129.239 48.1805C129.208 48.2067 129.173 48.2241 129.143 48.2503H139.218V47.7314Z" fill="#01C696"/>
<path d="M208.827 46.7812H199.179C199.126 46.96 199.061 47.1344 198.982 47.3001H209.019C208.94 47.1344 208.879 46.96 208.822 46.7812H208.827Z" fill="#01C696"/>
<path d="M393.147 25.9932H388.807V26.512H393.147V25.9932Z" fill="#01C696"/>
<path d="M161.311 47.7314H150.739C150.403 47.932 150.045 48.102 149.67 48.2503H160.893C161.041 48.0802 161.18 47.9102 161.311 47.7314Z" fill="#01C696"/>
<path d="M182.298 46.7812H172.663C172.611 46.96 172.545 47.1344 172.467 47.3001H182.499C182.42 47.1344 182.355 46.96 182.302 46.7812H182.298Z" fill="#01C696"/>
<path d="M393.147 26.9434H388.807V27.4622H393.147V26.9434Z" fill="#01C696"/>
<path d="M97.3543 46.7812H88.1861C88.1337 46.96 88.0683 47.1344 87.9941 47.3001H97.3543V46.7812Z" fill="#01C696"/>
<path d="M62.2226 45.8389H59.2217C59.1432 46.0133 59.056 46.1877 58.9688 46.3577H61.9565C62.0437 46.1833 62.1353 46.0133 62.2182 45.8389H62.2226Z" fill="#01C696"/>
<path d="M53.0314 46.3626C53.1099 46.1969 53.171 46.0225 53.2146 45.8438H45.5555C45.5424 46.0138 45.5337 46.1882 45.5293 46.3626H53.0314Z" fill="#01C696"/>
<path d="M53.2883 45.4075C53.3058 45.2505 53.3145 45.0849 53.3145 44.9236C53.3145 44.9105 53.3145 44.9018 53.3145 44.8887H45.7208C45.6728 45.0587 45.638 45.2331 45.6074 45.4075H53.2883Z" fill="#01C696"/>
<path d="M46.3711 43.5286H53.0008C52.9005 43.3455 52.774 43.1711 52.617 43.0098H46.8552C46.7942 43.0664 46.7331 43.1144 46.6764 43.1754C46.5674 43.2888 46.4627 43.4065 46.3711 43.5286Z" fill="#01C696"/>
<path d="M53.2849 44.47C53.2631 44.2912 53.2282 44.1168 53.1759 43.9512H46.1012C46.0053 44.1168 45.9268 44.2912 45.8613 44.47H53.2893H53.2849Z" fill="#01C696"/>
<path d="M182.094 45.8389H172.861C172.839 46.0133 172.808 46.1877 172.773 46.3577H182.186C182.151 46.1877 182.121 46.0133 182.094 45.8389Z" fill="#01C696"/>
<path d="M208.625 45.8389H199.378C199.356 46.0133 199.326 46.1877 199.291 46.3577H208.712C208.677 46.1877 208.647 46.0133 208.625 45.8389Z" fill="#01C696"/>
<path d="M120.215 46.7812H109.703C109.537 46.9426 109.358 47.0995 109.166 47.2434C109.14 47.2608 109.114 47.2783 109.088 47.3001H119.914C120.023 47.13 120.123 46.96 120.215 46.7812Z" fill="#01C696"/>
<path d="M161.899 46.7812H151.928C151.789 46.9295 151.636 47.0734 151.475 47.2085C151.44 47.239 151.396 47.2696 151.361 47.3001H161.603C161.707 47.13 161.808 46.9556 161.899 46.7812Z" fill="#01C696"/>
<path d="M335.464 18.9602H341.396V18.4414H334.857C335.067 18.6027 335.272 18.7728 335.468 18.9602H335.464Z" fill="#01C696"/>
<path d="M97.3559 39.2295H88.4668V39.7483H97.3559V39.2295Z" fill="#01C696"/>
<path d="M97.3559 36.3867H88.4668V36.9055H97.3559V36.3867Z" fill="#01C696"/>
<path d="M97.3559 34.5078H88.4668V35.0266H97.3559V34.5078Z" fill="#01C696"/>
<path d="M97.3559 35.4492H88.4668V35.968H97.3559V35.4492Z" fill="#01C696"/>
<path d="M67.9439 32.1839L68.1576 31.665H65.1698L64.9648 32.1839H67.9439Z" fill="#01C696"/>
<path d="M111.71 32.8861L110.476 32.6201H88.4668V33.1389H112.766C112.408 33.0474 112.055 32.9645 111.71 32.8861Z" fill="#01C696"/>
<path d="M97.3559 33.5576H88.4668V34.0764H97.3559V33.5576Z" fill="#01C696"/>
<path d="M64.0534 41.6409L64.2671 41.1221H59.4082L59.6307 41.6409H64.0534Z" fill="#01C696"/>
<path d="M59.2303 40.6858H64.4468L64.6606 40.167H59.0078L59.2303 40.6858Z" fill="#01C696"/>
<path d="M97.3559 37.3369H88.4668V37.8557H97.3559V37.3369Z" fill="#01C696"/>
<path d="M228.72 45.8389H224.166C224.088 46.0133 224.009 46.1877 223.922 46.3577H228.689C228.689 46.1877 228.702 46.0133 228.724 45.8389H228.72Z" fill="#01C696"/>
<path d="M97.3559 38.2793H88.4668V38.7981H97.3559V38.2793Z" fill="#01C696"/>
<path d="M139.218 46.7812H130.059C130.006 46.96 129.945 47.1344 129.871 47.3001H139.223V46.7812H139.218Z" fill="#01C696"/>
<path d="M393.147 33.5576H388.807V34.0764H393.147V33.5576Z" fill="#01C696"/>
<path d="M393.147 37.3369H388.807V37.8557H393.147V37.3369Z" fill="#01C696"/>
<path d="M393.147 35.4492H388.807V35.968H393.147V35.4492Z" fill="#01C696"/>
<path d="M393.147 32.6152H388.807V33.1341H393.147V32.6152Z" fill="#01C696"/>
<path d="M393.147 36.3867H388.807V36.9055H393.147V36.3867Z" fill="#01C696"/>
<path d="M393.147 34.5078H388.807V35.0266H393.147V34.5078Z" fill="#01C696"/>
<path d="M393.147 28.8359H388.807V29.3548H393.147V28.8359Z" fill="#01C696"/>
<path d="M393.147 31.665H388.807V32.1839H393.147V31.665Z" fill="#01C696"/>
<path d="M393.147 27.8848H388.807V28.4036H393.147V27.8848Z" fill="#01C696"/>
<path d="M393.147 30.7275H388.807V31.2464H393.147V30.7275Z" fill="#01C696"/>
<path d="M393.147 29.7734H388.807V30.2923H393.147V29.7734Z" fill="#01C696"/>
<path d="M274.944 45.8389H270.391C270.312 46.0133 270.234 46.1877 270.146 46.3577H274.914C274.914 46.1877 274.927 46.0133 274.949 45.8389H274.944Z" fill="#01C696"/>
<path d="M327.289 45.8389H318.439C318.421 46.0176 318.395 46.192 318.369 46.3577H327.359C327.328 46.192 327.306 46.0176 327.289 45.8389Z" fill="#01C696"/>
<path d="M351.051 45.8389H346.502C346.424 46.0133 346.345 46.1877 346.258 46.3577H351.025C351.025 46.1877 351.038 46.0133 351.056 45.8389H351.051Z" fill="#01C696"/>
<path d="M301.914 46.3626C301.827 46.1925 301.748 46.0181 301.67 45.8438H292.729C292.755 45.9702 292.785 46.0966 292.803 46.2187L292.816 46.2928V46.3626H301.914Z" fill="#01C696"/>
<path d="M377.257 44.4656L377.096 43.9512H368.303L368.464 44.47H377.262L377.257 44.4656Z" fill="#01C696"/>
<path d="M246.576 46.3626H255.688C255.6 46.1925 255.522 46.0181 255.443 45.8438H246.502C246.528 45.9702 246.559 46.0966 246.576 46.2187V46.3626Z" fill="#01C696"/>
<path d="M393.147 41.1221H388.807V41.6409H393.147V41.1221Z" fill="#01C696"/>
<path d="M393.147 39.2295H388.807V39.7483H393.147V39.2295Z" fill="#01C696"/>
<path d="M393.147 43.0098H388.807V43.5286H393.147V43.0098Z" fill="#01C696"/>
<path d="M393.147 40.167H388.807V40.6858H393.147V40.167Z" fill="#01C696"/>
<path d="M393.147 38.2793H388.807V38.7981H393.147V38.2793Z" fill="#01C696"/>
<path d="M393.147 42.0596H388.807V42.5784H393.147V42.0596Z" fill="#01C696"/>
<path d="M261.088 49.0613H260.259C259.487 49.0613 258.684 48.9567 257.96 48.6689H245.011C244.548 48.8477 243.964 48.948 243.366 49.0003C242.751 49.057 242.128 49.0613 241.626 49.0613H241.168V49.1878H261.083V49.0613H261.088Z" fill="#01C696"/>
<path d="M24.8853 43.5286H34.5944L34.2106 43.0098H24.5059L24.8548 43.485C24.8548 43.485 24.8766 43.5155 24.8897 43.5286H24.8853Z" fill="#01C696"/>
<path d="M65.6107 37.8557L65.8245 37.3369H57.8164L58.0345 37.8557H65.6107Z" fill="#01C696"/>
<path d="M66.0042 36.9055L66.2179 36.3867H57.416L57.6341 36.9055H66.0042Z" fill="#01C696"/>
<path d="M66.7751 35.0266L66.9888 34.5078H56.6211L56.8392 35.0266H66.7751Z" fill="#01C696"/>
<path d="M64.111 34.0764L63.8885 33.5576H56.2207L56.4388 34.0764H64.111Z" fill="#01C696"/>
<path d="M31.7861 39.7483L31.4023 39.2295H21.7324L22.1119 39.7483H31.7861Z" fill="#01C696"/>
<path d="M33.1903 41.6409L32.8064 41.1221H23.1191L23.4986 41.6409H33.1903Z" fill="#01C696"/>
<path d="M33.8884 42.5784L33.5046 42.0596H23.8086L24.1881 42.5784H33.8884Z" fill="#01C696"/>
<path d="M63.7038 33.1341L63.4814 32.6152H55.8223L56.0403 33.1341H63.7038Z" fill="#01C696"/>
<path d="M32.4843 40.6858L32.1004 40.167H22.4219L22.8013 40.6858H32.4843Z" fill="#01C696"/>
<path d="M21.4146 38.7981H31.0801L30.6919 38.2793H21.0352L21.4146 38.7981Z" fill="#01C696"/>
<path d="M66.3865 35.968L66.6002 35.4492H57.0176L57.2357 35.968H66.3865Z" fill="#01C696"/>
<path d="M30.0579 25.5745L30.4853 25.0557H25.3298L24.9023 25.5745H30.0579Z" fill="#01C696"/>
<path d="M30.8308 24.6331L31.2539 24.1143H26.1071L25.6797 24.6331H30.8308Z" fill="#01C696"/>
<path d="M31.6116 23.6819L32.0347 23.1631H26.8923L26.4648 23.6819H31.6116Z" fill="#01C696"/>
<path d="M29.2868 26.512L29.7143 25.9932H24.5544L24.127 26.512H29.2868Z" fill="#01C696"/>
<path d="M32.3827 22.7449L32.8057 22.2217H27.6677L27.2402 22.7449H32.3827Z" fill="#01C696"/>
<path d="M62.4741 30.2966L62.2516 29.7734H54.623L54.8411 30.2966H62.4741Z" fill="#01C696"/>
<path d="M63.2947 32.1839L63.0679 31.665H55.4219L55.64 32.1839H63.2947Z" fill="#01C696"/>
<path d="M61.0258 26.9434H53.4277L53.6458 27.4622H61.2482L61.0258 26.9434Z" fill="#01C696"/>
<path d="M62.8895 31.2464L62.6627 30.7275H55.0254L55.2435 31.2464H62.8895Z" fill="#01C696"/>
<path d="M33.1635 21.7903L33.5865 21.2715H28.4528L28.0254 21.7903H33.1635Z" fill="#01C696"/>
<path d="M62.0689 29.3548L61.8464 28.8359H54.2266L54.4446 29.3548H62.0689Z" fill="#01C696"/>
<path d="M61.6597 28.4036L61.4329 27.8848H53.8262L54.0443 28.4036H61.6597Z" fill="#01C696"/>
<path d="M383.43 49.0613H382.601C381.829 49.0613 381.026 48.9567 380.302 48.6689H367.352C366.886 48.8477 366.297 48.948 365.699 49.0003C365.084 49.057 364.465 49.0613 363.968 49.0613H363.51V49.1878H383.425V49.0613H383.43Z" fill="#01C696"/>
<path d="M333.639 49.1485C332.75 49.1224 331.847 49.0875 330.992 48.9872C330.451 48.9349 329.884 48.8433 329.361 48.6689H316.315C315.63 48.8608 314.893 48.9698 314.191 49.0352C314.182 49.0352 314.173 49.0352 314.165 49.0352C313.458 49.1093 312.747 49.1442 312.027 49.1572V49.1878H333.639V49.1485Z" fill="#01C696"/>
<path d="M395.673 41.1221L395.385 41.6409H404.967L405.251 41.1221H395.673Z" fill="#01C696"/>
<path d="M307.318 49.0613H306.489C305.717 49.0613 304.919 48.9567 304.199 48.6689H291.245C290.783 48.8477 290.198 48.948 289.601 49.0003C288.986 49.057 288.362 49.0613 287.86 49.0613H287.402V49.1878H307.318V49.0613Z" fill="#01C696"/>
<path d="M280.179 49.0613H279.424C278.543 49.0613 277.195 49.0352 276.349 48.6689H267.761C267.207 48.8695 266.61 48.9741 266.021 49.0221C265.702 49.0483 265.384 49.0613 265.083 49.0613H264.887V49.1878H280.179V49.0613Z" fill="#01C696"/>
<path d="M356.29 49.0613H355.535C354.654 49.0613 353.293 49.0352 352.451 48.6689H343.867C343.314 48.8695 342.716 48.9741 342.127 49.0221C341.809 49.0483 341.495 49.0613 341.194 49.0613H340.984V49.1878H356.29V49.0613Z" fill="#01C696"/>
<path d="M394.629 43.0098L394.346 43.5286H403.924L404.212 43.0098H394.629Z" fill="#01C696"/>
<path d="M35.2971 44.47L34.9133 43.9512H25.2129C25.3481 44.1256 25.4833 44.2956 25.6098 44.47H35.2971Z" fill="#01C696"/>
<path d="M395.153 42.0596L394.869 42.5784H404.447L404.735 42.0596H395.153Z" fill="#01C696"/>
<path d="M394.114 43.9512L393.826 44.47H403.404L403.692 43.9512H394.114Z" fill="#01C696"/>
<path d="M393.596 44.8887L393.312 45.4075H402.891L403.174 44.8887H393.596Z" fill="#01C696"/>
<path d="M402.651 45.8389H388.807V46.3621H402.367L402.651 45.8389Z" fill="#01C696"/>
<path d="M37.6309 47.3001C37.4608 47.1344 37.2951 46.9644 37.1293 46.7812H26.2906C26.2687 46.9644 26.2251 47.1388 26.1641 47.3001H37.6309Z" fill="#01C696"/>
<path d="M47.37 48.6729H45.8652C45.9219 48.8472 45.9874 49.0216 46.0615 49.1917H47.828L47.37 48.6729Z" fill="#01C696"/>
<path d="M25.4961 48.2503H38.7818C38.5506 48.0933 38.3282 47.9189 38.1057 47.7314H25.9541C25.8276 47.9276 25.6749 48.0977 25.4961 48.2503Z" fill="#01C696"/>
<path d="M35.9995 45.4075C35.9254 45.3072 35.8468 45.2069 35.7727 45.1067L35.6113 44.8887H25.8848C25.9807 45.0543 26.0636 45.2244 26.129 45.4075H35.9995Z" fill="#01C696"/>
<path d="M233.949 49.0613H233.194C232.313 49.0613 230.965 49.0352 230.119 48.6689H221.531C220.977 48.8695 220.38 48.9741 219.786 49.0221C219.468 49.0483 219.154 49.0613 218.849 49.0613H218.652V49.1878H233.944V49.0613H233.949Z" fill="#01C696"/>
<path d="M36.7573 46.3626C36.6134 46.1969 36.4738 46.0225 36.3342 45.8438H26.25C26.2849 46.0051 26.3023 46.1795 26.3067 46.3626H36.7573Z" fill="#01C696"/>
<path d="M214.776 49.0613H213.528C212.656 49.0613 211.496 49.0134 210.562 48.6689H197.455C196.853 48.8913 196.156 48.9916 195.501 49.0308C195.148 49.0526 194.812 49.0613 194.507 49.0613H187C186.128 49.0613 184.968 49.0134 184.034 48.6689H170.923C170.474 48.8346 169.972 48.9349 169.475 48.9872C169.349 49.0003 169.218 49.009 169.091 49.0221C169.052 49.0221 169.013 49.0308 168.974 49.0308C168.62 49.0526 168.28 49.0613 167.979 49.0613H166.758V49.1878H214.767V49.0613H214.776Z" fill="#01C696"/>
<path d="M124.396 49.623V50.1419H158.374C158.692 49.9849 158.993 49.8105 159.286 49.623H124.396Z" fill="#01C696"/>
<path d="M157.415 50.5605H124.393V51.0794H155.827C156.372 50.9311 156.905 50.7611 157.411 50.5605H157.415Z" fill="#01C696"/>
<path d="M113.536 51.0794C114.177 50.9311 114.797 50.7611 115.385 50.5605H82.5332V51.0794H113.536Z" fill="#01C696"/>
<path d="M60.6117 48.6729H57.5323C57.3928 48.8516 57.2445 49.0216 57.0918 49.1917H60.254C60.3761 49.0216 60.4939 48.8472 60.6117 48.6729Z" fill="#01C696"/>
<path d="M49.668 18.4414C49.7726 18.6114 49.873 18.7858 49.9689 18.9602H57.7676C57.7458 18.812 57.7284 18.6681 57.7284 18.5373C57.7284 18.5024 57.7327 18.4763 57.7371 18.4414H49.668Z" fill="#01C696"/>
<path d="M58.4314 38.7981H65.2226L65.4363 38.2793H58.209L58.4314 38.7981Z" fill="#01C696"/>
<path d="M61.2003 47.7314H58.1907C58.0773 47.9058 57.9639 48.0802 57.8418 48.2503H60.8819C60.9909 48.0802 61.0956 47.9058 61.2003 47.7314Z" fill="#01C696"/>
<path d="M34.7162 19.9026C34.8688 19.7195 35.0171 19.5495 35.1698 19.3838H29.4254C29.408 19.5538 29.3731 19.7239 29.3164 19.9026H34.7205H34.7162Z" fill="#01C696"/>
<path d="M60.6167 25.9932H53.0273L53.2454 26.512H60.8391L60.6167 25.9932Z" fill="#01C696"/>
<path d="M327.224 18.4414H318.51V18.9602H327.224V18.4414Z" fill="#01C696"/>
<path d="M67.381 33.5576H64.4237L64.2188 34.0764H67.1672L67.381 33.5576Z" fill="#01C696"/>
<path d="M209.629 48.1495C209.494 48.0275 209.376 47.8836 209.271 47.7354H198.738C198.633 47.8879 198.515 48.0275 198.38 48.1495C198.337 48.1888 198.284 48.2193 198.236 48.2542H209.773C209.725 48.2193 209.673 48.1888 209.629 48.1495Z" fill="#01C696"/>
<path d="M183.397 48.4142C183.258 48.2921 183.14 48.1482 183.035 48H172.506C172.401 48.1526 172.284 48.2921 172.148 48.4142C172.105 48.4534 172.048 48.4839 172 48.5188H183.541C183.493 48.4839 183.441 48.4534 183.397 48.4142Z" fill="#01C696"/>
<path d="M118.766 48.6733H105.855C105.14 48.8346 104.407 48.9349 103.687 48.9916C103.037 49.0439 102.401 49.0657 101.794 49.0657H97.3542V48.6733H86.4587C86.0051 48.839 85.5035 48.9393 85.0063 48.9916C84.4785 49.0526 83.9595 49.0613 83.5189 49.0613H82.5332V49.1878H118.146C118.369 49.0221 118.574 48.8477 118.77 48.6689L118.766 48.6733Z" fill="#01C696"/>
<path d="M160.494 48.6729H148.295C146.934 48.9868 145.49 49.0652 144.225 49.0652H139.218V48.6729H128.37C127.751 48.9039 127.031 48.9998 126.36 49.0391C126.011 49.0609 125.671 49.0652 125.37 49.0652H124.393V49.1917H159.892C160.102 49.026 160.302 48.8516 160.49 48.6729H160.494Z" fill="#01C696"/>
<path d="M116.454 50.1419C116.812 49.9849 117.152 49.8105 117.471 49.623H82.5293V50.1419H116.454Z" fill="#01C696"/>
<path d="M130.064 18.9602H139.49C139.542 18.7815 139.603 18.6071 139.677 18.4414H129.881C129.951 18.6071 130.012 18.7815 130.064 18.9602Z" fill="#01C696"/>
<path d="M238.041 18.9602H246.834L246.673 18.4414H237.875L238.041 18.9602Z" fill="#01C696"/>
<path d="M279.412 18.9602H283.573L283.743 18.4414H279.587L279.412 18.9602Z" fill="#01C696"/>
<path d="M284.271 18.9602H293.064L292.899 18.4414H284.105L284.271 18.9602Z" fill="#01C696"/>
<path d="M304.338 18.9602H310.252C310.449 18.7728 310.658 18.6027 310.867 18.4414H304.338V18.9602Z" fill="#01C696"/>
<path d="M233.186 18.9602H237.347L237.512 18.4414H233.356L233.186 18.9602Z" fill="#01C696"/>
<path d="M229.034 47.7314H223.002C222.836 47.9102 222.666 48.0672 222.478 48.1936C222.448 48.2154 222.417 48.2285 222.387 48.2503H229.457C229.287 48.0977 229.147 47.9233 229.034 47.7314Z" fill="#01C696"/>
<path d="M108.895 18.9602H118.626C118.556 18.7815 118.478 18.6114 118.395 18.4414H108.385C108.572 18.6071 108.742 18.7771 108.899 18.9602H108.895Z" fill="#01C696"/>
<path d="M88.2081 18.9602H97.3546V18.4414H88.0293C88.0991 18.6071 88.1601 18.7815 88.2081 18.9602Z" fill="#01C696"/>
<path d="M199.209 18.9602H208.813C208.865 18.7815 208.926 18.6071 209.001 18.4414H199.025C199.095 18.6071 199.156 18.7815 199.209 18.9602Z" fill="#01C696"/>
<path d="M70.0953 18.4719C70.0953 18.6202 70.0735 18.7858 70.043 18.9602H73.5061C73.6108 18.7815 73.7199 18.6071 73.8333 18.4414H70.0909C70.0909 18.4414 70.0909 18.4632 70.0909 18.4719H70.0953Z" fill="#01C696"/>
<path d="M172.685 18.9602H182.285C182.337 18.7815 182.398 18.6071 182.477 18.4414H172.506C172.576 18.6071 172.637 18.7815 172.689 18.9602H172.685Z" fill="#01C696"/>
<path d="M46.542 47.7314H45.6348C45.6653 47.9058 45.7046 48.0802 45.7482 48.2503H47.0043L46.5464 47.7314H46.542Z" fill="#01C696"/>
<path d="M129.257 17.5217C129.414 17.6612 129.54 17.8313 129.653 18.01H139.916C140.026 17.84 140.148 17.683 140.296 17.5479C140.318 17.5261 140.348 17.5087 140.374 17.4912H129.213C129.213 17.4912 129.243 17.5087 129.257 17.5217Z" fill="#01C696"/>
<path d="M107.81 18.01H118.152C118.043 17.8313 117.929 17.6569 117.798 17.4912H106.842C107.182 17.6394 107.505 17.8095 107.806 18.01H107.81Z" fill="#01C696"/>
<path d="M256.896 48.0366C256.791 47.9451 256.691 47.8404 256.591 47.7314H246.197C246.075 47.9233 245.918 48.0977 245.734 48.2503H257.179C257.083 48.1849 256.988 48.1151 256.896 48.0366Z" fill="#01C696"/>
<path d="M233.5 18.01H237.652L237.683 17.9185L237.696 17.9577L237.709 17.9185L237.74 18.01H246.533L246.367 17.4912H233.674L233.5 18.01Z" fill="#01C696"/>
<path d="M198.368 17.4956C198.538 17.6394 198.673 17.8182 198.796 18.01H209.237C209.351 17.8356 209.477 17.6743 209.63 17.5348C209.647 17.5174 209.674 17.5043 209.695 17.4912H198.359C198.359 17.4912 198.364 17.4912 198.368 17.4956Z" fill="#01C696"/>
<path d="M171.849 17.4956C172.019 17.6394 172.15 17.8182 172.272 18.01H182.714C182.827 17.8356 182.953 17.6743 183.11 17.5348C183.128 17.5174 183.154 17.5043 183.176 17.4912H171.84C171.84 17.4912 171.844 17.4912 171.849 17.4956Z" fill="#01C696"/>
<path d="M29.1384 18.01H36.6666C36.9283 17.8182 37.1944 17.6438 37.4648 17.4912H28.7109C28.881 17.6482 29.025 17.8226 29.1384 18.01Z" fill="#01C696"/>
<path d="M35.5727 18.9602C35.7559 18.7771 35.9434 18.6027 36.131 18.4414H29.3398C29.3922 18.6071 29.4271 18.7815 29.4402 18.9602H35.577H35.5727Z" fill="#01C696"/>
<path d="M70.0336 18.01H74.1641C74.3211 17.8226 74.4825 17.6438 74.657 17.4912H69.8242C69.9202 17.6525 69.99 17.8226 70.0336 18.01Z" fill="#01C696"/>
<path d="M49.3806 18.01H57.8073C57.8597 17.8226 57.9425 17.6482 58.0472 17.4912H48.9531C49.1014 17.6482 49.2454 17.8226 49.3806 18.01Z" fill="#01C696"/>
<path d="M87.3798 17.4956C87.5499 17.6394 87.6808 17.8182 87.8029 18.01H97.355V17.4912H87.3711C87.3711 17.4912 87.3755 17.4912 87.3798 17.4956Z" fill="#01C696"/>
<path d="M279.73 18.01H283.883L283.913 17.9185L283.926 17.9577L283.94 17.9185L283.97 18.01H292.763L292.597 17.4912H279.905L279.73 18.01Z" fill="#01C696"/>
<path d="M379.238 48.0366C379.129 47.9451 379.029 47.8404 378.928 47.7314H368.535C368.412 47.9233 368.255 48.0977 368.072 48.2503H379.517C379.421 48.1849 379.325 48.1151 379.234 48.0366H379.238Z" fill="#01C696"/>
<path d="M327.892 47.7314H317.838C317.694 47.932 317.515 48.1064 317.314 48.2503H328.424C328.219 48.1064 328.04 47.932 327.892 47.7314Z" fill="#01C696"/>
<path d="M351.367 47.7314H345.344C345.178 47.9102 345.008 48.0672 344.82 48.1936C344.79 48.2154 344.759 48.2285 344.729 48.2503H351.786C351.62 48.0977 351.48 47.9233 351.367 47.7314Z" fill="#01C696"/>
<path d="M275.259 47.7314H269.226C269.061 47.9102 268.89 48.0672 268.703 48.1936C268.672 48.2154 268.642 48.2285 268.611 48.2503H275.682C275.512 48.0977 275.372 47.9233 275.259 47.7314Z" fill="#01C696"/>
<path d="M303.126 48.0366C303.022 47.9451 302.921 47.8404 302.821 47.7314H292.432C292.305 47.9233 292.148 48.0977 291.965 48.2503H303.41C303.314 48.1849 303.214 48.1151 303.122 48.0366H303.126Z" fill="#01C696"/>
<path d="M388.798 20.8528H393.155C393.159 20.6828 393.168 20.5084 393.186 20.334H388.771C388.785 20.5084 388.793 20.6828 388.798 20.8528Z" fill="#01C696"/>
<path d="M393.147 44.8887H388.807V45.4075H393.147V44.8887Z" fill="#01C696"/>
<path d="M327.224 17.4912H318.51V18.01H327.224V17.4912Z" fill="#01C696"/>
<path d="M334.224 18.01H341.39V17.4912H333.203C333.556 17.6394 333.897 17.8095 334.224 18.01Z" fill="#01C696"/>
<path d="M355.832 18.01H359.993L360.024 17.9185L360.028 17.9403L360.037 17.9185L360.067 18.01H368.873L368.708 17.4912H356.002L355.832 18.01Z" fill="#01C696"/>
<path d="M304.338 18.01H311.504C311.836 17.8095 312.18 17.6394 312.533 17.4912H304.338V18.01Z" fill="#01C696"/>
</svg>
