<svg width="212" height="30" viewBox="0 0 212 30" fill="none" xmlns="http://www.w3.org/2000/svg">
<path d="M0 29.6558V25.8584H0.597548C1.63563 25.8584 2.49052 25.6884 3.1753 25.3439C3.847 24.9908 4.55359 24.3542 5.28636 23.4169L11.7853 15.3206L4.84583 6.07766C4.2352 5.24928 3.59838 4.6607 2.96594 4.30755C2.32041 3.9544 1.57456 3.77129 0.70659 3.75821L0.693506 0H16.3389V3.75821C16.2516 3.75821 16.1295 3.74513 15.9856 3.73205C15.8155 3.71897 15.7064 3.70589 15.6541 3.70589C14.9955 3.70589 14.4808 3.79309 14.1275 3.96312C13.7742 4.14624 13.6041 4.39039 13.6041 4.72174C13.6041 4.89178 13.639 5.07489 13.7131 5.27108C13.8004 5.4542 13.9574 5.71143 14.1755 6.03842L17.1807 10.2501L20.6744 6.0733C20.9448 5.79427 21.128 5.55884 21.2109 5.37572C21.3068 5.20569 21.3461 5.00949 21.3461 4.8133C21.3461 4.46015 21.1367 4.20292 20.7354 4.0198C20.3211 3.83669 19.7235 3.74949 18.9166 3.74949H18.6113V0H31.6091V3.75821H31.439C30.4358 3.75821 29.5809 3.92824 28.8743 4.25959C28.1677 4.59966 27.483 5.17517 26.7982 6.00354L20.5217 13.6595L27.6443 23.2425C28.412 24.2932 29.075 24.9995 29.6594 25.3788C30.2352 25.745 30.9069 25.9412 31.6614 25.9412C31.8315 25.9412 32.1151 25.9151 32.5032 25.8802C32.5512 25.854 32.5992 25.854 32.6254 25.854V29.6515H16.0379V25.854H16.5395C17.4685 25.854 18.1141 25.7668 18.5066 25.5968C18.8992 25.4137 19.0911 25.1347 19.0911 24.7553C19.0911 24.376 18.8817 23.9618 18.4804 23.4866C18.3714 23.3515 18.2711 23.2425 18.2013 23.1335L15.0391 18.8216L11.6675 23.0201C11.3273 23.4953 11.083 23.8747 10.9609 24.1319C10.8388 24.4022 10.7777 24.6681 10.7777 24.9254C10.7777 25.2437 10.9478 25.4878 11.3011 25.6448C11.6544 25.8148 12.1691 25.8889 12.8277 25.8889C13.0589 25.8889 13.229 25.8889 13.3642 25.8758C13.4732 25.8758 13.5823 25.8628 13.6957 25.8497L13.7218 29.6471H0.00435928L0 29.6558ZM194.374 12.818H197.122C199.307 12.818 200.847 12.478 201.715 11.7673C202.596 11.0697 203.032 9.87511 203.032 8.17912C203.032 6.66624 202.57 5.56755 201.654 4.89613C200.738 4.22471 199.224 3.89336 197.122 3.89336H194.374V12.818ZM200.031 0C204.109 0 207.08 0.6845 208.946 2.04042C210.813 3.39634 211.755 5.56755 211.755 8.52355C211.755 9.77047 211.511 10.904 211.009 11.9548C210.521 12.9924 209.823 13.8818 208.907 14.6404C208.017 15.3467 206.905 15.8743 205.562 16.1926C204.244 16.5108 202.399 16.6678 200.027 16.6678H194.37V23.1989C194.37 24.3237 194.527 25.03 194.858 25.3221C195.176 25.6273 195.931 25.7756 197.117 25.7756H199.228V29.6602H181.725V25.7756H183.361C184.508 25.7756 185.241 25.6273 185.572 25.3352C185.89 25.0562 186.048 24.3455 186.048 23.1989V6.45697C186.048 5.31032 185.89 4.59094 185.572 4.30755C185.241 4.02852 184.508 3.89336 183.361 3.89336H181.725V0H200.022H200.031ZM167.846 22.8544C167.846 24.1362 168.003 24.9559 168.322 25.3221C168.64 25.6753 169.395 25.8584 170.594 25.8584H172.683V29.6558H154.779V25.8584H156.855C158.063 25.8584 158.844 25.6753 159.162 25.309C159.467 24.9297 159.624 24.1232 159.624 22.8544V17.409L153.139 7.25046C152.284 5.9207 151.455 5.00513 150.635 4.52991C149.815 4.06776 148.768 3.79745 147.473 3.76257L147.447 0.00435987H164.414V3.75821H162.996C162.372 3.75821 161.91 3.84541 161.605 4.02852C161.286 4.21164 161.142 4.49067 161.142 4.8569C161.142 5.02693 161.216 5.27108 161.352 5.5632C161.5 5.85531 161.766 6.29565 162.159 6.87988L165.604 12.2294L169.621 6.19974C169.805 5.92942 169.94 5.67655 170.023 5.41932C170.119 5.14901 170.158 4.91793 170.158 4.68686C170.158 4.35551 169.975 4.11136 169.595 3.96748C169.229 3.83233 168.631 3.75821 167.811 3.75821H167.092V0H179.662V3.75821H179.527C178.428 3.75821 177.512 3.96748 176.805 4.40347C176.085 4.83074 175.265 5.78119 174.363 7.24611L167.851 17.4046V22.8501L167.846 22.8544ZM132.39 0H146.094V10.1323H142.2C142.029 7.96984 142.042 6.65316 140.368 5.05309C138.78 3.54022 135.286 3.89336 133.258 3.89336H131.806V12.3297C133.184 12.3297 134.946 12.3297 136.861 12.3428C142.688 12.4169 149.318 14.2001 149.235 21.0713C149.139 28.6792 141.968 29.6558 136.006 29.6558H119.161V25.7712H120.797C121.944 25.7712 122.677 25.623 123.008 25.3308C123.34 25.0518 123.497 24.3412 123.497 23.2076V6.45697C123.497 5.31032 123.34 4.59094 123.008 4.30755C122.677 4.02416 121.944 3.89336 120.797 3.89336H119.161V0H132.39ZM131.806 25.7712H134.152C137.559 25.7712 140.481 24.9646 140.481 20.9971C140.481 17.0297 137.659 16.0879 134.104 16.0879H131.81V25.7712H131.806ZM54.6606 22.8544C54.6606 24.1362 54.8176 24.9559 55.136 25.3221C55.4413 25.6753 56.209 25.8584 57.3954 25.8584H59.4977V29.6558H41.593V25.8584H43.6561C44.8773 25.8584 45.645 25.6753 45.9634 25.309C46.2818 24.9297 46.4388 24.1232 46.4388 22.8544V17.409L39.9399 7.25046C39.0981 5.9207 38.2563 5.00513 37.4363 4.52991C36.6163 4.06776 35.5695 3.79745 34.2741 3.76257L34.2479 0.00435987H51.2236V3.75821H49.7929C49.1823 3.75821 48.72 3.84541 48.4016 4.02852C48.0963 4.21164 47.9392 4.49067 47.9392 4.8569C47.9392 5.02693 48.0134 5.27108 48.1573 5.5632C48.3056 5.85531 48.5717 6.29565 48.9642 6.87988L52.41 12.2294L56.4271 6.19974C56.5972 5.92942 56.7324 5.67655 56.8196 5.41932C56.9156 5.14901 56.9679 4.91793 56.9679 4.68686C56.9679 4.35551 56.7847 4.11136 56.4053 3.96748C56.0389 3.83233 55.4413 3.75821 54.6082 3.75821H53.9016V0H66.4589V3.75821H66.3368C65.2246 3.75821 64.3217 3.96748 63.602 4.40347C62.8954 4.83074 62.0754 5.78119 61.1595 7.24611L54.6606 17.4046V22.8501V22.8544ZM68.5351 29.6558V25.7712H70.1707C71.3178 25.7712 72.0506 25.623 72.3821 25.3308C72.7136 25.0518 72.8706 24.3412 72.8706 23.2076V6.45697C72.8706 5.31032 72.7136 4.59094 72.3821 4.30755C72.0506 4.02416 71.3178 3.89336 70.1707 3.89336H68.5351V0H84.7693V3.89336H83.9275C82.7411 3.89336 81.9996 4.0416 81.6681 4.33371C81.3497 4.62582 81.1796 5.33648 81.1796 6.45697V12.2425H90.7797V6.45697C90.7797 5.33212 90.6226 4.62582 90.2781 4.33371C89.9466 4.0416 89.2051 3.89336 88.0318 3.89336H87.2031V0H103.424V3.89336H101.789C100.628 3.89336 99.8694 4.0416 99.5423 4.33371C99.2108 4.62582 99.0538 5.33648 99.0538 6.45697V23.2076C99.0538 24.3194 99.2108 25.0257 99.5423 25.3178C99.8738 25.623 100.628 25.7712 101.789 25.7712H103.424V29.6558H87.2031V25.7712H88.0318C89.2051 25.7712 89.951 25.623 90.2781 25.3178C90.6183 25.0257 90.7797 24.315 90.7797 23.2076V16.2623H81.1796V23.2076C81.1796 24.3194 81.3497 25.0257 81.6681 25.3178C81.9996 25.623 82.7411 25.7712 83.9275 25.7712H84.7693V29.6558H68.5351Z" fill="#FCFCFC"/>
</svg>
